# MagicaVoxel @ Ephtracy

# group
o 

# material
mtllib action_idle.mtl
usemtl palette

# normals
vn -1 0 0
vn 1 0 0
vn 0 0 1
vn 0 0 -1
vn 0 -1 0
vn 0 1 0

# texcoords
vt 0.970703 0.5
vt 0.974609 0.5
vt 0.982422 0.5

# verts
v -0.6 0.3 0.1
v -0.6 0.3 -0.1
v -0.6 1 0.1
v -0.6 1 -0.1
v -0.5 0.2 0.1
v -0.5 0.2 -0.1
v -0.5 0.3 0.1
v -0.5 0.3 -0.1
v -0.5 1 0.1
v -0.5 1 -0.1
v -0.5 1.1 0.1
v -0.5 1.1 -0.1
v -0.2 0.1 0.1
v -0.2 0.1 -0.1
v -0.2 0.2 0.1
v -0.2 0.2 -0.1
v -0.1 0 0.1
v -0.1 0 -0.1
v -0.1 0.1 0.1
v -0.1 0.1 -0.1
v -5.96046e-008 0 0.1
v -5.96046e-008 0 -0.1
v -5.96046e-008 0.1 0.1
v -5.96046e-008 0.1 -0.1
v 0.1 0.1 0.1
v 0.1 0.1 -0.1
v 0.1 0.2 0.1
v 0.1 0.2 -0.1
v 0.4 0.2 0.1
v 0.4 0.2 -0.1
v 0.4 0.3 0.1
v 0.4 0.3 -0.1
v 0.4 1 0.1
v 0.4 1 -0.1
v 0.4 1.1 0.1
v 0.4 1.1 -0.1
v 0.5 0.3 0.1
v 0.5 0.3 -0.1
v 0.5 1 0.1
v 0.5 1 -0.1
v -0.6 0.3 0.1
v -0.6 1 0.1
v -0.5 0.2 0.1
v -0.5 0.3 0.1
v -0.5 0.4 0.1
v -0.5 0.9 0.1
v -0.5 1 0.1
v -0.5 1.1 0.1
v -0.4 0.3 0.1
v -0.4 0.4 0.1
v -0.4 0.9 0.1
v -0.4 1 0.1
v -0.3 0.6 0.1
v -0.3 0.7 0.1
v -0.2 0.1 0.1
v -0.2 0.2 0.1
v -0.2 0.6 0.1
v -0.2 0.7 0.1
v -0.1 0 0.1
v -0.1 0.1 0.1
v -0.1 0.6 0.1
v -0.1 0.7 0.1
v -5.96046e-008 0 0.1
v -5.96046e-008 0.1 0.1
v -5.96046e-008 0.6 0.1
v -5.96046e-008 0.7 0.1
v 0.1 0.1 0.1
v 0.1 0.2 0.1
v 0.1 0.6 0.1
v 0.1 0.7 0.1
v 0.2 0.6 0.1
v 0.2 0.7 0.1
v 0.3 0.3 0.1
v 0.3 0.4 0.1
v 0.3 0.9 0.1
v 0.3 1 0.1
v 0.4 0.2 0.1
v 0.4 0.3 0.1
v 0.4 0.4 0.1
v 0.4 0.9 0.1
v 0.4 1 0.1
v 0.4 1.1 0.1
v 0.5 0.3 0.1
v 0.5 1 0.1
v -0.6 0.3 -0.1
v -0.6 1 -0.1
v -0.5 0.2 -0.1
v -0.5 0.3 -0.1
v -0.5 0.4 -0.1
v -0.5 0.9 -0.1
v -0.5 1 -0.1
v -0.5 1.1 -0.1
v -0.4 0.3 -0.1
v -0.4 0.4 -0.1
v -0.4 0.9 -0.1
v -0.4 1 -0.1
v -0.3 0.6 -0.1
v -0.3 0.7 -0.1
v -0.2 0.1 -0.1
v -0.2 0.2 -0.1
v -0.2 0.6 -0.1
v -0.2 0.7 -0.1
v -0.1 0 -0.1
v -0.1 0.1 -0.1
v -0.1 0.6 -0.1
v -0.1 0.7 -0.1
v -5.96046e-008 0 -0.1
v -5.96046e-008 0.1 -0.1
v -5.96046e-008 0.6 -0.1
v -5.96046e-008 0.7 -0.1
v 0.1 0.1 -0.1
v 0.1 0.2 -0.1
v 0.1 0.6 -0.1
v 0.1 0.7 -0.1
v 0.2 0.6 -0.1
v 0.2 0.7 -0.1
v 0.3 0.3 -0.1
v 0.3 0.4 -0.1
v 0.3 0.9 -0.1
v 0.3 1 -0.1
v 0.4 0.2 -0.1
v 0.4 0.3 -0.1
v 0.4 0.4 -0.1
v 0.4 0.9 -0.1
v 0.4 1 -0.1
v 0.4 1.1 -0.1
v 0.5 0.3 -0.1
v 0.5 1 -0.1
v -0.1 0 0.1
v -5.96046e-008 0 0.1
v -0.1 0 -0.1
v -5.96046e-008 0 -0.1
v -0.2 0.1 0.1
v -0.1 0.1 0.1
v -5.96046e-008 0.1 0.1
v 0.1 0.1 0.1
v -0.2 0.1 -0.1
v -0.1 0.1 -0.1
v -5.96046e-008 0.1 -0.1
v 0.1 0.1 -0.1
v -0.5 0.2 0.1
v -0.2 0.2 0.1
v 0.1 0.2 0.1
v 0.4 0.2 0.1
v -0.5 0.2 -0.1
v -0.2 0.2 -0.1
v 0.1 0.2 -0.1
v 0.4 0.2 -0.1
v -0.6 0.3 0.1
v -0.5 0.3 0.1
v 0.4 0.3 0.1
v 0.5 0.3 0.1
v -0.6 0.3 -0.1
v -0.5 0.3 -0.1
v 0.4 0.3 -0.1
v 0.5 0.3 -0.1
v -0.6 1 0.1
v -0.5 1 0.1
v 0.4 1 0.1
v 0.5 1 0.1
v -0.6 1 -0.1
v -0.5 1 -0.1
v 0.4 1 -0.1
v 0.5 1 -0.1
v -0.5 1.1 0.1
v 0.4 1.1 0.1
v -0.5 1.1 -0.1
v 0.4 1.1 -0.1

# faces
f 3/1/1 2/1/1 1/1/1
f 4/1/1 2/1/1 3/1/1
f 7/1/1 6/1/1 5/1/1
f 8/1/1 6/1/1 7/1/1
f 11/1/1 10/1/1 9/1/1
f 12/1/1 10/1/1 11/1/1
f 15/1/1 14/1/1 13/1/1
f 16/1/1 14/1/1 15/1/1
f 19/1/1 18/1/1 17/1/1
f 20/1/1 18/1/1 19/1/1
f 21/1/2 22/1/2 23/1/2
f 23/1/2 22/1/2 24/1/2
f 25/1/2 26/1/2 27/1/2
f 27/1/2 26/1/2 28/1/2
f 29/1/2 30/1/2 31/1/2
f 31/1/2 30/1/2 32/1/2
f 33/1/2 34/1/2 35/1/2
f 35/1/2 34/1/2 36/1/2
f 37/1/2 38/1/2 39/1/2
f 39/1/2 38/1/2 40/1/2
f 44/1/3 42/1/3 41/1/3
f 45/1/3 42/1/3 44/1/3
f 46/1/3 42/1/3 45/1/3
f 47/1/3 42/1/3 46/1/3
f 49/1/3 44/1/3 43/1/3
f 49/1/3 45/1/3 44/1/3
f 50/2/3 46/2/3 45/2/3
f 50/1/3 45/1/3 49/1/3
f 51/1/3 48/1/3 47/1/3
f 51/2/3 46/2/3 50/2/3
f 51/1/3 47/1/3 46/1/3
f 52/1/3 48/1/3 51/1/3
f 53/2/3 50/2/3 49/2/3
f 53/2/3 51/2/3 50/2/3
f 53/2/3 52/2/3 51/2/3
f 54/2/3 52/2/3 53/2/3
f 56/1/3 49/1/3 43/1/3
f 57/2/3 53/2/3 49/2/3
f 57/3/3 54/3/3 53/3/3
f 58/2/3 52/2/3 54/2/3
f 58/3/3 54/3/3 57/3/3
f 60/1/3 56/1/3 55/1/3
f 61/2/3 57/2/3 49/2/3
f 61/2/3 58/2/3 57/2/3
f 62/2/3 52/2/3 58/2/3
f 62/2/3 58/2/3 61/2/3
f 63/1/3 60/1/3 59/1/3
f 64/1/3 56/1/3 60/1/3
f 64/1/3 60/1/3 63/1/3
f 65/2/3 61/2/3 49/2/3
f 65/3/3 62/3/3 61/3/3
f 66/2/3 52/2/3 62/2/3
f 66/3/3 62/3/3 65/3/3
f 67/1/3 56/1/3 64/1/3
f 68/1/3 49/1/3 56/1/3
f 68/1/3 56/1/3 67/1/3
f 69/2/3 65/2/3 49/2/3
f 69/2/3 66/2/3 65/2/3
f 70/2/3 52/2/3 66/2/3
f 70/2/3 66/2/3 69/2/3
f 71/2/3 69/2/3 49/2/3
f 71/3/3 70/3/3 69/3/3
f 72/2/3 52/2/3 70/2/3
f 72/3/3 70/3/3 71/3/3
f 73/1/3 49/1/3 68/1/3
f 73/2/3 71/2/3 49/2/3
f 73/2/3 72/2/3 71/2/3
f 74/2/3 72/2/3 73/2/3
f 75/2/3 52/2/3 72/2/3
f 75/2/3 72/2/3 74/2/3
f 76/1/3 48/1/3 52/1/3
f 76/2/3 52/2/3 75/2/3
f 77/1/3 74/1/3 73/1/3
f 77/1/3 73/1/3 68/1/3
f 78/1/3 74/1/3 77/1/3
f 79/2/3 75/2/3 74/2/3
f 79/1/3 74/1/3 78/1/3
f 80/1/3 76/1/3 75/1/3
f 80/2/3 75/2/3 79/2/3
f 81/1/3 48/1/3 76/1/3
f 81/1/3 76/1/3 80/1/3
f 82/1/3 48/1/3 81/1/3
f 83/1/3 80/1/3 79/1/3
f 83/1/3 81/1/3 80/1/3
f 83/1/3 79/1/3 78/1/3
f 84/1/3 81/1/3 83/1/3
f 85/1/4 86/1/4 88/1/4
f 88/1/4 86/1/4 89/1/4
f 89/1/4 86/1/4 90/1/4
f 90/1/4 86/1/4 91/1/4
f 87/1/4 88/1/4 93/1/4
f 88/1/4 89/1/4 93/1/4
f 89/2/4 90/2/4 94/2/4
f 93/1/4 89/1/4 94/1/4
f 91/1/4 92/1/4 95/1/4
f 94/2/4 90/2/4 95/2/4
f 90/1/4 91/1/4 95/1/4
f 95/1/4 92/1/4 96/1/4
f 93/2/4 94/2/4 97/2/4
f 94/2/4 95/2/4 97/2/4
f 95/2/4 96/2/4 97/2/4
f 97/2/4 96/2/4 98/2/4
f 87/1/4 93/1/4 100/1/4
f 93/2/4 97/2/4 101/2/4
f 97/3/4 98/3/4 101/3/4
f 98/2/4 96/2/4 102/2/4
f 101/3/4 98/3/4 102/3/4
f 99/1/4 100/1/4 104/1/4
f 93/2/4 101/2/4 105/2/4
f 101/2/4 102/2/4 105/2/4
f 102/2/4 96/2/4 106/2/4
f 105/2/4 102/2/4 106/2/4
f 103/1/4 104/1/4 107/1/4
f 104/1/4 100/1/4 108/1/4
f 107/1/4 104/1/4 108/1/4
f 93/2/4 105/2/4 109/2/4
f 105/3/4 106/3/4 109/3/4
f 106/2/4 96/2/4 110/2/4
f 109/3/4 106/3/4 110/3/4
f 108/1/4 100/1/4 111/1/4
f 100/1/4 93/1/4 112/1/4
f 111/1/4 100/1/4 112/1/4
f 93/2/4 109/2/4 113/2/4
f 109/2/4 110/2/4 113/2/4
f 110/2/4 96/2/4 114/2/4
f 113/2/4 110/2/4 114/2/4
f 93/2/4 113/2/4 115/2/4
f 113/3/4 114/3/4 115/3/4
f 114/2/4 96/2/4 116/2/4
f 115/3/4 114/3/4 116/3/4
f 112/1/4 93/1/4 117/1/4
f 93/2/4 115/2/4 117/2/4
f 115/2/4 116/2/4 117/2/4
f 117/2/4 116/2/4 118/2/4
f 116/2/4 96/2/4 119/2/4
f 118/2/4 116/2/4 119/2/4
f 96/1/4 92/1/4 120/1/4
f 119/2/4 96/2/4 120/2/4
f 117/1/4 118/1/4 121/1/4
f 112/1/4 117/1/4 121/1/4
f 121/1/4 118/1/4 122/1/4
f 118/2/4 119/2/4 123/2/4
f 122/1/4 118/1/4 123/1/4
f 119/1/4 120/1/4 124/1/4
f 123/2/4 119/2/4 124/2/4
f 120/1/4 92/1/4 125/1/4
f 124/1/4 120/1/4 125/1/4
f 125/1/4 92/1/4 126/1/4
f 123/1/4 124/1/4 127/1/4
f 124/1/4 125/1/4 127/1/4
f 122/1/4 123/1/4 127/1/4
f 127/1/4 125/1/4 128/1/4
f 131/1/5 130/1/5 129/1/5
f 132/1/5 130/1/5 131/1/5
f 137/1/5 134/1/5 133/1/5
f 138/1/5 134/1/5 137/1/5
f 139/1/5 136/1/5 135/1/5
f 140/1/5 136/1/5 139/1/5
f 145/1/5 142/1/5 141/1/5
f 146/1/5 142/1/5 145/1/5
f 147/1/5 144/1/5 143/1/5
f 148/1/5 144/1/5 147/1/5
f 153/1/5 150/1/5 149/1/5
f 154/1/5 150/1/5 153/1/5
f 155/1/5 152/1/5 151/1/5
f 156/1/5 152/1/5 155/1/5
f 157/1/6 158/1/6 161/1/6
f 161/1/6 158/1/6 162/1/6
f 159/1/6 160/1/6 163/1/6
f 163/1/6 160/1/6 164/1/6
f 165/1/6 166/1/6 167/1/6
f 167/1/6 166/1/6 168/1/6
