# MagicaVoxel @ Ephtracy

# group
o 

# material
mtllib action_sleeping.mtl
usemtl palette

# normals
vn -1 0 0
vn 1 0 0
vn 0 0 1
vn 0 0 -1
vn 0 -1 0
vn 0 1 0

# texcoords
vt 0.970703 0.5
vt 0.974609 0.5
vt 0.982422 0.5
vt 0.986328 0.5
vt 0.990234 0.5
vt 0.994141 0.5

# verts
v -0.6 0.3 0.1
v -0.6 0.3 -0.1
v -0.6 1 0.1
v -0.6 1 -0.1
v -0.5 0.2 0.1
v -0.5 0.2 -0.1
v -0.5 0.3 0.1
v -0.5 0.3 -0.1
v -0.5 1 0.1
v -0.5 1 -0.1
v -0.5 1.1 0.1
v -0.5 1.1 -0.1
v -0.2 0.1 0.1
v -0.2 0.1 -0.1
v -0.2 0.2 0.1
v -0.2 0.2 -0.1
v -0.1 0 0.1
v -0.1 0 -0.1
v -0.1 0.1 0.1
v -0.1 0.1 -0.1
v -5.96046e-008 0 0.1
v -5.96046e-008 0 -0.1
v -5.96046e-008 0.1 0.1
v -5.96046e-008 0.1 -0.1
v 0.1 0.1 0.1
v 0.1 0.1 -0.1
v 0.1 0.2 0.1
v 0.1 0.2 -0.1
v 0.4 0.2 0.1
v 0.4 0.2 -0.1
v 0.4 0.3 0.1
v 0.4 0.3 -0.1
v 0.4 1 0.1
v 0.4 1 -0.1
v 0.4 1.1 0.1
v 0.4 1.1 -0.1
v 0.5 0.3 0.1
v 0.5 0.3 -0.1
v 0.5 1 0.1
v 0.5 1 -0.1
v -0.6 0.3 0.1
v -0.6 1 0.1
v -0.5 0.2 0.1
v -0.5 0.3 0.1
v -0.5 0.4 0.1
v -0.5 0.9 0.1
v -0.5 1 0.1
v -0.5 1.1 0.1
v -0.4 0.3 0.1
v -0.4 0.4 0.1
v -0.4 0.8 0.1
v -0.4 0.9 0.1
v -0.4 1 0.1
v -0.3 0.4 0.1
v -0.3 0.5 0.1
v -0.3 0.6 0.1
v -0.3 0.7 0.1
v -0.3 0.8 0.1
v -0.2 0.1 0.1
v -0.2 0.2 0.1
v -0.2 0.6 0.1
v -0.2 0.7 0.1
v -0.2 0.8 0.1
v -0.1 0 0.1
v -0.1 0.1 0.1
v -0.1 0.8 0.1
v -0.1 0.9 0.1
v -5.96046e-008 0 0.1
v -5.96046e-008 0.1 0.1
v -5.96046e-008 0.8 0.1
v -5.96046e-008 0.9 0.1
v 0.1 0.1 0.1
v 0.1 0.2 0.1
v 0.1 0.9 0.1
v 0.1 1 0.1
v 0.2 0.4 0.1
v 0.2 0.5 0.1
v 0.2 0.6 0.1
v 0.2 0.7 0.1
v 0.2 0.9 0.1
v 0.2 1 0.1
v 0.3 0.3 0.1
v 0.3 0.4 0.1
v 0.3 0.7 0.1
v 0.3 0.9 0.1
v 0.3 1 0.1
v 0.4 0.2 0.1
v 0.4 0.3 0.1
v 0.4 0.4 0.1
v 0.4 0.9 0.1
v 0.4 1 0.1
v 0.4 1.1 0.1
v 0.5 0.3 0.1
v 0.5 1 0.1
v -0.6 0.3 -0.1
v -0.6 1 -0.1
v -0.5 0.2 -0.1
v -0.5 0.3 -0.1
v -0.5 0.4 -0.1
v -0.5 0.9 -0.1
v -0.5 1 -0.1
v -0.5 1.1 -0.1
v -0.4 0.3 -0.1
v -0.4 0.4 -0.1
v -0.4 0.8 -0.1
v -0.4 0.9 -0.1
v -0.4 1 -0.1
v -0.3 0.4 -0.1
v -0.3 0.5 -0.1
v -0.3 0.6 -0.1
v -0.3 0.7 -0.1
v -0.3 0.8 -0.1
v -0.2 0.1 -0.1
v -0.2 0.2 -0.1
v -0.2 0.6 -0.1
v -0.2 0.7 -0.1
v -0.2 0.8 -0.1
v -0.1 0 -0.1
v -0.1 0.1 -0.1
v -0.1 0.8 -0.1
v -0.1 0.9 -0.1
v -5.96046e-008 0 -0.1
v -5.96046e-008 0.1 -0.1
v -5.96046e-008 0.8 -0.1
v -5.96046e-008 0.9 -0.1
v 0.1 0.1 -0.1
v 0.1 0.2 -0.1
v 0.1 0.9 -0.1
v 0.1 1 -0.1
v 0.2 0.4 -0.1
v 0.2 0.5 -0.1
v 0.2 0.6 -0.1
v 0.2 0.7 -0.1
v 0.2 0.9 -0.1
v 0.2 1 -0.1
v 0.3 0.3 -0.1
v 0.3 0.4 -0.1
v 0.3 0.7 -0.1
v 0.3 0.9 -0.1
v 0.3 1 -0.1
v 0.4 0.2 -0.1
v 0.4 0.3 -0.1
v 0.4 0.4 -0.1
v 0.4 0.9 -0.1
v 0.4 1 -0.1
v 0.4 1.1 -0.1
v 0.5 0.3 -0.1
v 0.5 1 -0.1
v -0.1 0 0.1
v -5.96046e-008 0 0.1
v -0.1 0 -0.1
v -5.96046e-008 0 -0.1
v -0.2 0.1 0.1
v -0.1 0.1 0.1
v -5.96046e-008 0.1 0.1
v 0.1 0.1 0.1
v -0.2 0.1 -0.1
v -0.1 0.1 -0.1
v -5.96046e-008 0.1 -0.1
v 0.1 0.1 -0.1
v -0.5 0.2 0.1
v -0.2 0.2 0.1
v 0.1 0.2 0.1
v 0.4 0.2 0.1
v -0.5 0.2 -0.1
v -0.2 0.2 -0.1
v 0.1 0.2 -0.1
v 0.4 0.2 -0.1
v -0.6 0.3 0.1
v -0.5 0.3 0.1
v 0.4 0.3 0.1
v 0.5 0.3 0.1
v -0.6 0.3 -0.1
v -0.5 0.3 -0.1
v 0.4 0.3 -0.1
v 0.5 0.3 -0.1
v -0.6 1 0.1
v -0.5 1 0.1
v 0.4 1 0.1
v 0.5 1 0.1
v -0.6 1 -0.1
v -0.5 1 -0.1
v 0.4 1 -0.1
v 0.5 1 -0.1
v -0.5 1.1 0.1
v 0.4 1.1 0.1
v -0.5 1.1 -0.1
v 0.4 1.1 -0.1

# faces
f 3/1/1 2/1/1 1/1/1
f 4/1/1 2/1/1 3/1/1
f 7/1/1 6/1/1 5/1/1
f 8/1/1 6/1/1 7/1/1
f 11/1/1 10/1/1 9/1/1
f 12/1/1 10/1/1 11/1/1
f 15/1/1 14/1/1 13/1/1
f 16/1/1 14/1/1 15/1/1
f 19/1/1 18/1/1 17/1/1
f 20/1/1 18/1/1 19/1/1
f 21/1/2 22/1/2 23/1/2
f 23/1/2 22/1/2 24/1/2
f 25/1/2 26/1/2 27/1/2
f 27/1/2 26/1/2 28/1/2
f 29/1/2 30/1/2 31/1/2
f 31/1/2 30/1/2 32/1/2
f 33/1/2 34/1/2 35/1/2
f 35/1/2 34/1/2 36/1/2
f 37/1/2 38/1/2 39/1/2
f 39/1/2 38/1/2 40/1/2
f 44/1/3 42/1/3 41/1/3
f 45/1/3 42/1/3 44/1/3
f 46/1/3 42/1/3 45/1/3
f 47/1/3 42/1/3 46/1/3
f 49/1/3 44/1/3 43/1/3
f 49/1/3 45/1/3 44/1/3
f 50/2/3 46/2/3 45/2/3
f 50/1/3 45/1/3 49/1/3
f 51/2/3 46/2/3 50/2/3
f 52/1/3 48/1/3 47/1/3
f 52/2/3 46/2/3 51/2/3
f 52/1/3 47/1/3 46/1/3
f 53/1/3 48/1/3 52/1/3
f 54/4/3 51/4/3 50/4/3
f 54/2/3 50/2/3 49/2/3
f 55/4/3 51/4/3 54/4/3
f 56/4/3 51/4/3 55/4/3
f 57/4/3 51/4/3 56/4/3
f 58/2/3 53/2/3 52/2/3
f 58/4/3 51/4/3 57/4/3
f 58/2/3 52/2/3 51/2/3
f 60/1/3 49/1/3 43/1/3
f 61/6/3 57/6/3 56/6/3
f 61/4/3 56/4/3 55/4/3
f 62/3/3 58/3/3 57/3/3
f 62/6/3 57/6/3 61/6/3
f 63/2/3 53/2/3 58/2/3
f 63/3/3 58/3/3 62/3/3
f 65/1/3 60/1/3 59/1/3
f 66/2/3 53/2/3 63/2/3
f 66/2/3 63/2/3 62/2/3
f 67/2/3 53/2/3 66/2/3
f 68/1/3 65/1/3 64/1/3
f 69/1/3 60/1/3 65/1/3
f 69/1/3 65/1/3 68/1/3
f 70/2/3 66/2/3 62/2/3
f 70/3/3 67/3/3 66/3/3
f 71/2/3 53/2/3 67/2/3
f 71/3/3 67/3/3 70/3/3
f 72/1/3 60/1/3 69/1/3
f 73/1/3 49/1/3 60/1/3
f 73/1/3 60/1/3 72/1/3
f 74/2/3 53/2/3 71/2/3
f 74/2/3 71/2/3 70/2/3
f 75/1/3 48/1/3 53/1/3
f 75/2/3 53/2/3 74/2/3
f 76/2/3 54/2/3 49/2/3
f 76/2/3 55/2/3 54/2/3
f 77/4/3 61/4/3 55/4/3
f 77/2/3 55/2/3 76/2/3
f 78/5/3 62/5/3 61/5/3
f 78/4/3 61/4/3 77/4/3
f 79/2/3 74/2/3 70/2/3
f 79/5/3 62/5/3 78/5/3
f 79/2/3 70/2/3 62/2/3
f 80/3/3 75/3/3 74/3/3
f 80/2/3 74/2/3 79/2/3
f 81/1/3 48/1/3 75/1/3
f 81/3/3 75/3/3 80/3/3
f 82/1/3 49/1/3 73/1/3
f 82/2/3 76/2/3 49/2/3
f 83/4/3 78/4/3 77/4/3
f 83/2/3 76/2/3 82/2/3
f 83/4/3 77/4/3 76/4/3
f 83/4/3 79/4/3 78/4/3
f 84/2/3 80/2/3 79/2/3
f 84/4/3 79/4/3 83/4/3
f 84/2/3 81/2/3 80/2/3
f 85/2/3 81/2/3 84/2/3
f 86/1/3 48/1/3 81/1/3
f 86/2/3 81/2/3 85/2/3
f 87/1/3 82/1/3 73/1/3
f 87/1/3 83/1/3 82/1/3
f 88/1/3 83/1/3 87/1/3
f 89/2/3 85/2/3 84/2/3
f 89/1/3 83/1/3 88/1/3
f 89/2/3 84/2/3 83/2/3
f 90/1/3 86/1/3 85/1/3
f 90/2/3 85/2/3 89/2/3
f 91/1/3 48/1/3 86/1/3
f 91/1/3 86/1/3 90/1/3
f 92/1/3 48/1/3 91/1/3
f 93/1/3 90/1/3 89/1/3
f 93/1/3 91/1/3 90/1/3
f 93/1/3 89/1/3 88/1/3
f 94/1/3 91/1/3 93/1/3
f 95/1/4 96/1/4 98/1/4
f 98/1/4 96/1/4 99/1/4
f 99/1/4 96/1/4 100/1/4
f 100/1/4 96/1/4 101/1/4
f 97/1/4 98/1/4 103/1/4
f 98/1/4 99/1/4 103/1/4
f 99/2/4 100/2/4 104/2/4
f 103/1/4 99/1/4 104/1/4
f 104/2/4 100/2/4 105/2/4
f 101/1/4 102/1/4 106/1/4
f 105/2/4 100/2/4 106/2/4
f 100/1/4 101/1/4 106/1/4
f 106/1/4 102/1/4 107/1/4
f 104/4/4 105/4/4 108/4/4
f 103/2/4 104/2/4 108/2/4
f 108/4/4 105/4/4 109/4/4
f 109/4/4 105/4/4 110/4/4
f 110/4/4 105/4/4 111/4/4
f 106/2/4 107/2/4 112/2/4
f 111/4/4 105/4/4 112/4/4
f 105/2/4 106/2/4 112/2/4
f 97/1/4 103/1/4 114/1/4
f 110/6/4 111/6/4 115/6/4
f 109/4/4 110/4/4 115/4/4
f 111/3/4 112/3/4 116/3/4
f 115/6/4 111/6/4 116/6/4
f 112/2/4 107/2/4 117/2/4
f 116/3/4 112/3/4 117/3/4
f 113/1/4 114/1/4 119/1/4
f 117/2/4 107/2/4 120/2/4
f 116/2/4 117/2/4 120/2/4
f 120/2/4 107/2/4 121/2/4
f 118/1/4 119/1/4 122/1/4
f 119/1/4 114/1/4 123/1/4
f 122/1/4 119/1/4 123/1/4
f 116/2/4 120/2/4 124/2/4
f 120/3/4 121/3/4 124/3/4
f 121/2/4 107/2/4 125/2/4
f 124/3/4 121/3/4 125/3/4
f 123/1/4 114/1/4 126/1/4
f 114/1/4 103/1/4 127/1/4
f 126/1/4 114/1/4 127/1/4
f 125/2/4 107/2/4 128/2/4
f 124/2/4 125/2/4 128/2/4
f 107/1/4 102/1/4 129/1/4
f 128/2/4 107/2/4 129/2/4
f 103/2/4 108/2/4 130/2/4
f 108/2/4 109/2/4 130/2/4
f 109/4/4 115/4/4 131/4/4
f 130/2/4 109/2/4 131/2/4
f 115/5/4 116/5/4 132/5/4
f 131/4/4 115/4/4 132/4/4
f 124/2/4 128/2/4 133/2/4
f 132/5/4 116/5/4 133/5/4
f 116/2/4 124/2/4 133/2/4
f 128/3/4 129/3/4 134/3/4
f 133/2/4 128/2/4 134/2/4
f 129/1/4 102/1/4 135/1/4
f 134/3/4 129/3/4 135/3/4
f 127/1/4 103/1/4 136/1/4
f 103/2/4 130/2/4 136/2/4
f 131/4/4 132/4/4 137/4/4
f 136/2/4 130/2/4 137/2/4
f 130/4/4 131/4/4 137/4/4
f 132/4/4 133/4/4 137/4/4
f 133/2/4 134/2/4 138/2/4
f 137/4/4 133/4/4 138/4/4
f 134/2/4 135/2/4 138/2/4
f 138/2/4 135/2/4 139/2/4
f 135/1/4 102/1/4 140/1/4
f 139/2/4 135/2/4 140/2/4
f 127/1/4 136/1/4 141/1/4
f 136/1/4 137/1/4 141/1/4
f 141/1/4 137/1/4 142/1/4
f 138/2/4 139/2/4 143/2/4
f 142/1/4 137/1/4 143/1/4
f 137/2/4 138/2/4 143/2/4
f 139/1/4 140/1/4 144/1/4
f 143/2/4 139/2/4 144/2/4
f 140/1/4 102/1/4 145/1/4
f 144/1/4 140/1/4 145/1/4
f 145/1/4 102/1/4 146/1/4
f 143/1/4 144/1/4 147/1/4
f 144/1/4 145/1/4 147/1/4
f 142/1/4 143/1/4 147/1/4
f 147/1/4 145/1/4 148/1/4
f 151/1/5 150/1/5 149/1/5
f 152/1/5 150/1/5 151/1/5
f 157/1/5 154/1/5 153/1/5
f 158/1/5 154/1/5 157/1/5
f 159/1/5 156/1/5 155/1/5
f 160/1/5 156/1/5 159/1/5
f 165/1/5 162/1/5 161/1/5
f 166/1/5 162/1/5 165/1/5
f 167/1/5 164/1/5 163/1/5
f 168/1/5 164/1/5 167/1/5
f 173/1/5 170/1/5 169/1/5
f 174/1/5 170/1/5 173/1/5
f 175/1/5 172/1/5 171/1/5
f 176/1/5 172/1/5 175/1/5
f 177/1/6 178/1/6 181/1/6
f 181/1/6 178/1/6 182/1/6
f 179/1/6 180/1/6 183/1/6
f 183/1/6 180/1/6 184/1/6
f 185/1/6 186/1/6 187/1/6
f 187/1/6 186/1/6 188/1/6
