# Blender v2.93.1 OBJ File: 'candle.blend'
# www.blender.org
mtllib 16x16x16.mtl
o Outer_16x16x16
v -0.800000 0.200000 0.600000
v -0.800000 0.000000 -0.800000
v -0.800000 -0.000000 0.800000
v -0.800000 0.200000 -0.600000
v -0.800000 1.400000 0.600000
v -0.800000 1.400000 -0.600000
v -0.800000 1.600000 0.800000
v -0.800000 1.600000 -0.800000
v 0.600000 0.200000 0.600000
v 0.600000 0.000000 -0.600000
v 0.600000 -0.000000 0.600000
v 0.600000 0.200000 -0.600000
v 0.600000 1.400000 0.800000
v 0.600000 0.200000 0.800000
v 0.600000 1.400000 0.600000
v 0.600000 1.400000 -0.600000
v 0.600000 0.200000 -0.800000
v 0.600000 1.400000 -0.800000
v 0.600000 1.600000 0.600000
v 0.600000 1.600000 -0.600000
v -0.600000 -0.000000 0.600000
v -0.600000 0.000000 -0.600000
v -0.600000 0.200000 0.600000
v -0.600000 0.200000 -0.600000
v -0.600000 0.200000 0.800000
v -0.600000 1.400000 0.800000
v -0.600000 1.400000 0.600000
v -0.600000 0.200000 -0.800000
v -0.600000 1.400000 -0.600000
v -0.600000 1.400000 -0.800000
v -0.600000 1.600000 0.600000
v -0.600000 1.600000 -0.600000
v 0.800000 -0.000000 0.800000
v 0.800000 0.000000 -0.800000
v 0.800000 0.200000 0.600000
v 0.800000 0.200000 -0.600000
v 0.800000 1.400000 0.600000
v 0.800000 1.400000 -0.600000
v 0.800000 1.600000 0.800000
v 0.800000 1.600000 -0.800000
v -0.600000 0.200000 0.800000
v -0.800000 1.600000 0.800000
v -0.800000 -0.000000 0.800000
v -0.600000 1.400000 0.800000
v 0.600000 0.200000 0.800000
v 0.600000 1.400000 0.800000
v 0.800000 -0.000000 0.800000
v 0.800000 1.600000 0.800000
v -0.600000 0.200000 -0.600000
v -0.800000 1.400000 -0.600000
v -0.800000 0.200000 -0.600000
v -0.600000 1.400000 -0.600000
v 0.600000 0.000000 -0.600000
v -0.600000 0.000000 -0.600000
v 0.600000 0.200000 -0.600000
v 0.600000 1.400000 -0.600000
v -0.600000 1.600000 -0.600000
v 0.600000 1.600000 -0.600000
v 0.800000 0.200000 -0.600000
v 0.800000 1.400000 -0.600000
v -0.800000 0.200000 0.600000
v -0.800000 1.400000 0.600000
v -0.600000 0.200000 0.600000
v -0.600000 1.400000 0.600000
v -0.600000 -0.000000 0.600000
v 0.600000 -0.000000 0.600000
v 0.600000 0.200000 0.600000
v -0.600000 1.600000 0.600000
v 0.600000 1.400000 0.600000
v 0.600000 1.600000 0.600000
v 0.800000 0.200000 0.600000
v 0.800000 1.400000 0.600000
v -0.800000 0.000000 -0.800000
v -0.800000 1.600000 -0.800000
v -0.600000 0.200000 -0.800000
v -0.600000 1.400000 -0.800000
v 0.600000 0.200000 -0.800000
v 0.600000 1.400000 -0.800000
v 0.800000 0.000000 -0.800000
v 0.800000 1.600000 -0.800000
v -0.600000 -0.000000 0.600000
v 0.800000 -0.000000 0.800000
v -0.800000 -0.000000 0.800000
v 0.600000 -0.000000 0.600000
v -0.600000 0.000000 -0.600000
v 0.600000 0.000000 -0.600000
v -0.800000 0.000000 -0.800000
v 0.800000 0.000000 -0.800000
v -0.600000 1.400000 0.600000
v 0.600000 1.400000 0.800000
v -0.600000 1.400000 0.800000
v 0.600000 1.400000 0.600000
v -0.800000 1.400000 -0.600000
v -0.800000 1.400000 0.600000
v -0.600000 1.400000 -0.600000
v 0.600000 1.400000 -0.600000
v 0.800000 1.400000 0.600000
v 0.800000 1.400000 -0.600000
v -0.600000 1.400000 -0.800000
v 0.600000 1.400000 -0.800000
v -0.600000 0.200000 0.800000
v 0.600000 0.200000 0.800000
v -0.600000 0.200000 0.600000
v 0.600000 0.200000 0.600000
v -0.800000 0.200000 0.600000
v -0.800000 0.200000 -0.600000
v -0.600000 0.200000 -0.600000
v 0.800000 0.200000 0.600000
v 0.600000 0.200000 -0.600000
v 0.800000 0.200000 -0.600000
v -0.600000 0.200000 -0.800000
v 0.600000 0.200000 -0.800000
v -0.800000 1.600000 0.800000
v 0.800000 1.600000 0.800000
v -0.600000 1.600000 0.600000
v 0.600000 1.600000 0.600000
v -0.600000 1.600000 -0.600000
v 0.600000 1.600000 -0.600000
v -0.800000 1.600000 -0.800000
v 0.800000 1.600000 -0.800000
vt 0.005859 0.500000
vt 0.005859 0.500000
vt 0.005859 0.500000
vt 0.005859 0.500000
vt 0.005859 0.500000
vt 0.005859 0.500000
vt 0.005859 0.500000
vt 0.005859 0.500000
vt 0.005859 0.500000
vt 0.005859 0.500000
vt 0.005859 0.500000
vt 0.005859 0.500000
vt 0.005859 0.500000
vt 0.005859 0.500000
vt 0.005859 0.500000
vt 0.005859 0.500000
vt 0.005859 0.500000
vt 0.005859 0.500000
vt 0.005859 0.500000
vt 0.005859 0.500000
vt 0.005859 0.500000
vt 0.005859 0.500000
vt 0.005859 0.500000
vt 0.005859 0.500000
vt 0.005859 0.500000
vt 0.005859 0.500000
vt 0.005859 0.500000
vt 0.005859 0.500000
vt 0.005859 0.500000
vt 0.005859 0.500000
vt 0.005859 0.500000
vt 0.005859 0.500000
vt 0.005859 0.500000
vt 0.005859 0.500000
vt 0.005859 0.500000
vt 0.005859 0.500000
vt 0.005859 0.500000
vt 0.005859 0.500000
vt 0.005859 0.500000
vt 0.005859 0.500000
vt 0.005859 0.500000
vt 0.005859 0.500000
vt 0.005859 0.500000
vt 0.005859 0.500000
vt 0.005859 0.500000
vt 0.005859 0.500000
vt 0.005859 0.500000
vt 0.005859 0.500000
vt 0.005859 0.500000
vt 0.005859 0.500000
vt 0.005859 0.500000
vt 0.005859 0.500000
vt 0.005859 0.500000
vt 0.005859 0.500000
vt 0.005859 0.500000
vt 0.005859 0.500000
vt 0.005859 0.500000
vt 0.005859 0.500000
vt 0.005859 0.500000
vt 0.005859 0.500000
vt 0.005859 0.500000
vt 0.005859 0.500000
vt 0.005859 0.500000
vt 0.005859 0.500000
vt 0.005859 0.500000
vt 0.005859 0.500000
vt 0.005859 0.500000
vt 0.005859 0.500000
vt 0.005859 0.500000
vt 0.005859 0.500000
vt 0.005859 0.500000
vt 0.005859 0.500000
vt 0.005859 0.500000
vt 0.005859 0.500000
vt 0.005859 0.500000
vt 0.005859 0.500000
vt 0.005859 0.500000
vt 0.005859 0.500000
vt 0.005859 0.500000
vt 0.005859 0.500000
vt 0.005859 0.500000
vt 0.005859 0.500000
vt 0.005859 0.500000
vt 0.005859 0.500000
vt 0.005859 0.500000
vt 0.005859 0.500000
vt 0.005859 0.500000
vt 0.005859 0.500000
vt 0.005859 0.500000
vt 0.005859 0.500000
vt 0.005859 0.500000
vt 0.005859 0.500000
vt 0.005859 0.500000
vt 0.005859 0.500000
vt 0.005859 0.500000
vt 0.005859 0.500000
vt 0.005859 0.500000
vt 0.005859 0.500000
vt 0.005859 0.500000
vt 0.005859 0.500000
vt 0.005859 0.500000
vt 0.005859 0.500000
vt 0.005859 0.500000
vt 0.005859 0.500000
vt 0.005859 0.500000
vt 0.005859 0.500000
vt 0.005859 0.500000
vt 0.005859 0.500000
vt 0.005859 0.500000
vt 0.005859 0.500000
vt 0.005859 0.500000
vt 0.005859 0.500000
vt 0.005859 0.500000
vt 0.005859 0.500000
vt 0.005859 0.500000
vt 0.005859 0.500000
vt 0.005859 0.500000
vt 0.005859 0.500000
vt 0.005859 0.500000
vt 0.005859 0.500000
vn -1.0000 0.0000 0.0000
vn 1.0000 0.0000 0.0000
vn -0.0000 -0.0000 1.0000
vn 0.0000 0.0000 -1.0000
vn -0.0000 -1.0000 -0.0000
vn 0.0000 1.0000 0.0000
g Outer_16x16x16_palette.001
usemtl palette.001
s 1
f 1/1/1 2/2/1 3/3/1
f 4/4/1 2/2/1 1/1/1
f 5/5/1 1/1/1 3/3/1
f 6/6/1 2/2/1 4/4/1
f 7/7/1 5/5/1 3/3/1
f 7/7/1 6/6/1 5/5/1
f 8/8/1 2/2/1 6/6/1
f 8/8/1 6/6/1 7/7/1
f 9/9/1 10/10/1 11/11/1
f 12/12/1 10/10/1 9/9/1
f 13/13/1 9/9/1 14/14/1
f 15/15/1 9/9/1 13/13/1
f 16/16/1 17/17/1 12/12/1
f 18/18/1 17/17/1 16/16/1
f 19/19/1 16/16/1 15/15/1
f 20/20/1 16/16/1 19/19/1
f 21/21/2 22/22/2 23/23/2
f 23/23/2 22/22/2 24/24/2
f 25/25/2 23/23/2 26/26/2
f 26/26/2 23/23/2 27/27/2
f 24/24/2 28/28/2 29/29/2
f 29/29/2 28/28/2 30/30/2
f 27/27/2 29/29/2 31/31/2
f 31/31/2 29/29/2 32/32/2
f 33/33/2 34/34/2 35/35/2
f 35/35/2 34/34/2 36/36/2
f 33/33/2 35/35/2 37/37/2
f 36/36/2 34/34/2 38/38/2
f 33/33/2 37/37/2 39/39/2
f 37/37/2 38/38/2 39/39/2
f 38/38/2 34/34/2 40/40/2
f 39/39/2 38/38/2 40/40/2
f 41/41/3 42/42/3 43/43/3
f 44/44/3 42/42/3 41/41/3
f 45/45/3 41/41/3 43/43/3
f 46/46/3 42/42/3 44/44/3
f 47/47/3 45/45/3 43/43/3
f 47/47/3 46/46/3 45/45/3
f 48/48/3 42/42/3 46/46/3
f 48/48/3 46/46/3 47/47/3
f 49/49/3 50/50/3 51/51/3
f 52/52/3 50/50/3 49/49/3
f 53/53/3 49/49/3 54/54/3
f 55/55/3 49/49/3 53/53/3
f 56/56/3 57/57/3 52/52/3
f 58/58/3 57/57/3 56/56/3
f 59/59/3 56/56/3 55/55/3
f 60/60/3 56/56/3 59/59/3
f 61/61/4 62/62/4 63/63/4
f 63/63/4 62/62/4 64/64/4
f 65/65/4 63/63/4 66/66/4
f 66/66/4 63/63/4 67/67/4
f 64/64/4 68/68/4 69/69/4
f 69/69/4 68/68/4 70/70/4
f 67/67/4 69/69/4 71/71/4
f 71/71/4 69/69/4 72/72/4
f 73/73/4 74/74/4 75/75/4
f 75/75/4 74/74/4 76/76/4
f 73/73/4 75/75/4 77/77/4
f 76/76/4 74/74/4 78/78/4
f 73/73/4 77/77/4 79/79/4
f 77/77/4 78/78/4 79/79/4
f 78/78/4 74/74/4 80/80/4
f 79/79/4 78/78/4 80/80/4
f 81/81/5 82/82/5 83/83/5
f 84/84/5 82/82/5 81/81/5
f 85/85/5 81/81/5 83/83/5
f 86/86/5 82/82/5 84/84/5
f 87/87/5 85/85/5 83/83/5
f 87/87/5 86/86/5 85/85/5
f 88/88/5 82/82/5 86/86/5
f 88/88/5 86/86/5 87/87/5
f 89/89/5 90/90/5 91/91/5
f 92/92/5 90/90/5 89/89/5
f 93/93/5 89/89/5 94/94/5
f 95/95/5 89/89/5 93/93/5
f 96/96/5 97/97/5 92/92/5
f 98/98/5 97/97/5 96/96/5
f 99/99/5 96/96/5 95/95/5
f 100/100/5 96/96/5 99/99/5
f 101/101/6 102/102/6 103/103/6
f 103/103/6 102/102/6 104/104/6
f 105/105/6 103/103/6 106/106/6
f 106/106/6 103/103/6 107/107/6
f 104/104/6 108/108/6 109/109/6
f 109/109/6 108/108/6 110/110/6
f 107/107/6 109/109/6 111/111/6
f 111/111/6 109/109/6 112/112/6
f 113/113/6 114/114/6 115/115/6
f 115/115/6 114/114/6 116/116/6
f 113/113/6 115/115/6 117/117/6
f 116/116/6 114/114/6 118/118/6
f 113/113/6 117/117/6 119/119/6
f 117/117/6 118/118/6 119/119/6
f 118/118/6 114/114/6 120/120/6
f 119/119/6 118/118/6 120/120/6
o Inner_16x16x16.001
v -0.400000 1.200000 0.400000
v -0.400000 0.400000 -0.400000
v -0.400000 0.400000 0.400000
v -0.400000 1.200000 -0.400000
v 0.400000 0.400000 0.400000
v 0.400000 0.400000 -0.400000
v 0.400000 1.200000 0.400000
v 0.400000 1.200000 -0.400000
v 0.400000 0.400000 0.400000
v -0.400000 1.200000 0.400000
v -0.400000 0.400000 0.400000
v 0.400000 1.200000 0.400000
v -0.400000 0.400000 -0.400000
v -0.400000 1.200000 -0.400000
v 0.400000 0.400000 -0.400000
v 0.400000 1.200000 -0.400000
v -0.400000 0.400000 -0.400000
v 0.400000 0.400000 0.400000
v -0.400000 0.400000 0.400000
v 0.400000 0.400000 -0.400000
v -0.400000 1.200000 0.400000
v 0.400000 1.200000 0.400000
v -0.400000 1.200000 -0.400000
v 0.400000 1.200000 -0.400000
vt 0.001953 0.500000
vt 0.001953 0.500000
vt 0.001953 0.500000
vt 0.001953 0.500000
vt 0.001953 0.500000
vt 0.001953 0.500000
vt 0.001953 0.500000
vt 0.001953 0.500000
vt 0.001953 0.500000
vt 0.001953 0.500000
vt 0.001953 0.500000
vt 0.001953 0.500000
vt 0.001953 0.500000
vt 0.001953 0.500000
vt 0.001953 0.500000
vt 0.001953 0.500000
vt 0.001953 0.500000
vt 0.001953 0.500000
vt 0.001953 0.500000
vt 0.001953 0.500000
vt 0.001953 0.500000
vt 0.001953 0.500000
vt 0.001953 0.500000
vt 0.001953 0.500000
vn -1.0000 -0.0000 0.0000
vn 1.0000 0.0000 0.0000
vn 0.0000 -0.0000 1.0000
vn 0.0000 0.0000 -1.0000
vn 0.0000 -1.0000 -0.0000
vn 0.0000 1.0000 0.0000
g Inner_16x16x16.001_palette.001
usemtl palette.001
s 1
f 121/121/7 122/122/7 123/123/7
f 124/124/7 122/122/7 121/121/7
f 125/125/8 126/126/8 127/127/8
f 127/127/8 126/126/8 128/128/8
f 129/129/9 130/130/9 131/131/9
f 132/132/9 130/130/9 129/129/9
f 133/133/10 134/134/10 135/135/10
f 135/135/10 134/134/10 136/136/10
f 137/137/11 138/138/11 139/139/11
f 140/140/11 138/138/11 137/137/11
f 141/141/12 142/142/12 143/143/12
f 143/143/12 142/142/12 144/144/12
