# MagicaVoxel @ Ephtracy

# group
o 

# material
mtllib test_plank_1.mtl
usemtl palette

# normals
vn -1 0 0
vn 1 0 0
vn 0 0 1
vn 0 0 -1
vn 0 -1 0
vn 0 1 0

# texcoords
vt 0.279297 0.5
vt 0.970703 0.5
vt 0.974609 0.5
vt 0.982422 0.5
vt 0.990234 0.5

# verts
v -1.6 0 0.4
v -1.6 0 -0.4
v -1.6 0.1 0.3
v -1.6 0.1 -0.3
v -1.6 0.3 0.3
v -1.6 0.3 -0.3
v -1.6 0.4 0.4
v -1.6 0.4 -0.4
v 1.6 0 0.4
v 1.6 0 -0.4
v 1.6 0.1 0.3
v 1.6 0.1 -0.3
v 1.6 0.2 0
v 1.6 0.2 -0.2
v 1.6 0.3 0.3
v 1.6 0.3 0
v 1.6 0.3 -0.2
v 1.6 0.3 -0.3
v 1.6 0.4 0.4
v 1.6 0.4 -0.4
v -1.6 0 0.4
v -1.6 0.4 0.4
v -1.5 0.1 0.4
v -1.5 0.3 0.4
v 0.3 0.1 0.4
v 0.3 0.3 0.4
v 0.5 0.1 0.4
v 0.5 0.3 0.4
v 1.1 0.2 0.4
v 1.1 0.3 0.4
v 1.2 0.2 0.4
v 1.2 0.3 0.4
v 1.5 0.1 0.4
v 1.5 0.3 0.4
v 1.6 0 0.4
v 1.6 0.4 0.4
v -1.6 0 -0.4
v -1.6 0.4 -0.4
v -1.4 0.1 -0.4
v -1.4 0.3 -0.4
v -1 0.2 -0.4
v -1 0.3 -0.4
v -0.5 0.2 -0.4
v -0.5 0.3 -0.4
v 0 0.1 -0.4
v 0 0.2 -0.4
v 0.1 0.1 -0.4
v 0.1 0.2 -0.4
v 0.9 0.1 -0.4
v 0.9 0.3 -0.4
v 1.2 0.1 -0.4
v 1.2 0.3 -0.4
v 1.5 0.1 -0.4
v 1.5 0.3 -0.4
v 1.6 0 -0.4
v 1.6 0.4 -0.4
v -1.6 0 0.4
v 1.6 0 0.4
v -1.5 0 0.3
v 1.5 0 0.3
v -1.5 0 -0.3
v 1.5 0 -0.3
v -1.6 0 -0.4
v 1.6 0 -0.4
v -1.6 0.4 0.4
v 1.6 0.4 0.4
v -1.5 0.4 0.3
v 1.5 0.4 0.3
v -1.1 0.4 0.2
v -0.9 0.4 0.2
v -0.7 0.4 0.2
v 0.9 0.4 0.2
v 1.1 0.4 0.2
v -1.1 0.4 0.1
v -0.9 0.4 0.1
v -0.7 0.4 0.1
v 0.9 0.4 0.1
v 1.1 0.4 0.1
v -0.2 0.4 0
v 0.3 0.4 0
v -1.5 0.4 -0.1
v -1.3 0.4 -0.1
v -1.1 0.4 -0.1
v -0.9 0.4 -0.1
v -0.2 0.4 -0.1
v 0.3 0.4 -0.1
v 0.7 0.4 -0.1
v 1.2 0.4 -0.1
v -1.5 0.4 -0.2
v -1.3 0.4 -0.2
v -1.1 0.4 -0.2
v -0.9 0.4 -0.2
v 0.7 0.4 -0.2
v 1.2 0.4 -0.2
v -1.5 0.4 -0.3
v 1.5 0.4 -0.3
v -1.6 0.4 -0.4
v 1.6 0.4 -0.4

# faces
f 3/3/1 2/3/1 1/3/1
f 4/3/1 2/3/1 3/3/1
f 5/3/1 3/3/1 1/3/1
f 5/2/1 4/2/1 3/2/1
f 6/3/1 2/3/1 4/3/1
f 6/2/1 4/2/1 5/2/1
f 7/3/1 5/3/1 1/3/1
f 7/3/1 6/3/1 5/3/1
f 8/3/1 2/3/1 6/3/1
f 8/3/1 6/3/1 7/3/1
f 9/3/2 10/3/2 11/3/2
f 11/3/2 10/3/2 12/3/2
f 11/2/2 12/2/2 13/2/2
f 13/2/2 12/2/2 14/2/2
f 9/3/2 11/3/2 15/3/2
f 11/2/2 13/2/2 15/2/2
f 13/4/2 14/4/2 16/4/2
f 15/2/2 13/2/2 16/2/2
f 14/2/2 12/2/2 17/2/2
f 16/4/2 14/4/2 17/4/2
f 12/3/2 10/3/2 18/3/2
f 17/2/2 12/2/2 18/2/2
f 15/3/2 16/3/2 19/3/2
f 16/3/2 17/3/2 19/3/2
f 17/3/2 18/3/2 19/3/2
f 9/3/2 15/3/2 19/3/2
f 18/3/2 10/3/2 20/3/2
f 19/3/2 18/3/2 20/3/2
f 23/3/3 22/3/3 21/3/3
f 24/3/3 22/3/3 23/3/3
f 25/3/3 23/3/3 21/3/3
f 25/2/3 24/2/3 23/2/3
f 26/3/3 22/3/3 24/3/3
f 26/2/3 24/2/3 25/2/3
f 27/3/3 25/3/3 21/3/3
f 27/4/3 26/4/3 25/4/3
f 28/3/3 22/3/3 26/3/3
f 28/4/3 26/4/3 27/4/3
f 29/2/3 28/2/3 27/2/3
f 30/3/3 22/3/3 28/3/3
f 30/2/3 28/2/3 29/2/3
f 31/2/3 29/2/3 27/2/3
f 31/4/3 30/4/3 29/4/3
f 32/3/3 22/3/3 30/3/3
f 32/4/3 30/4/3 31/4/3
f 33/3/3 27/3/3 21/3/3
f 33/2/3 31/2/3 27/2/3
f 33/2/3 32/2/3 31/2/3
f 34/3/3 22/3/3 32/3/3
f 34/2/3 32/2/3 33/2/3
f 35/3/3 33/3/3 21/3/3
f 35/3/3 34/3/3 33/3/3
f 36/3/3 22/3/3 34/3/3
f 36/3/3 34/3/3 35/3/3
f 37/3/4 38/3/4 39/3/4
f 39/3/4 38/3/4 40/3/4
f 39/2/4 40/2/4 41/2/4
f 40/3/4 38/3/4 42/3/4
f 41/2/4 40/2/4 42/2/4
f 39/2/4 41/2/4 43/2/4
f 41/4/4 42/4/4 43/4/4
f 42/3/4 38/3/4 44/3/4
f 43/4/4 42/4/4 44/4/4
f 37/3/4 39/3/4 45/3/4
f 39/2/4 43/2/4 45/2/4
f 43/2/4 44/2/4 45/2/4
f 45/2/4 44/2/4 46/2/4
f 37/3/4 45/3/4 47/3/4
f 45/4/4 46/4/4 47/4/4
f 46/2/4 44/2/4 48/2/4
f 47/4/4 46/4/4 48/4/4
f 37/3/4 47/3/4 49/3/4
f 47/2/4 48/2/4 49/2/4
f 44/3/4 38/3/4 50/3/4
f 49/2/4 48/2/4 50/2/4
f 48/2/4 44/2/4 50/2/4
f 37/3/4 49/3/4 51/3/4
f 49/4/4 50/4/4 51/4/4
f 50/3/4 38/3/4 52/3/4
f 51/4/4 50/4/4 52/4/4
f 37/3/4 51/3/4 53/3/4
f 51/2/4 52/2/4 53/2/4
f 52/3/4 38/3/4 54/3/4
f 53/2/4 52/2/4 54/2/4
f 37/3/4 53/3/4 55/3/4
f 53/3/4 54/3/4 55/3/4
f 54/3/4 38/3/4 56/3/4
f 55/3/4 54/3/4 56/3/4
f 59/3/5 58/3/5 57/3/5
f 60/3/5 58/3/5 59/3/5
f 61/3/5 59/3/5 57/3/5
f 61/2/5 60/2/5 59/2/5
f 62/3/5 58/3/5 60/3/5
f 62/2/5 60/2/5 61/2/5
f 63/3/5 61/3/5 57/3/5
f 63/3/5 62/3/5 61/3/5
f 64/3/5 58/3/5 62/3/5
f 64/3/5 62/3/5 63/3/5
f 65/3/6 66/3/6 67/3/6
f 67/3/6 66/3/6 68/3/6
f 67/2/6 68/2/6 69/2/6
f 69/2/6 68/2/6 70/2/6
f 70/2/6 68/2/6 71/2/6
f 71/2/6 68/2/6 72/2/6
f 72/2/6 68/2/6 73/2/6
f 67/2/6 69/2/6 74/2/6
f 69/4/6 70/4/6 74/4/6
f 70/3/6 71/3/6 75/3/6
f 74/4/6 70/4/6 75/4/6
f 71/2/6 72/2/6 76/2/6
f 75/3/6 71/3/6 76/3/6
f 72/5/6 73/5/6 77/5/6
f 76/2/6 72/2/6 77/2/6
f 73/2/6 68/2/6 78/2/6
f 77/5/6 73/5/6 78/5/6
f 76/2/6 77/2/6 79/2/6
f 75/2/6 76/2/6 79/2/6
f 77/2/6 78/2/6 79/2/6
f 74/2/6 75/2/6 79/2/6
f 79/2/6 78/2/6 80/2/6
f 65/3/6 67/3/6 81/3/6
f 67/2/6 74/2/6 81/2/6
f 74/2/6 79/2/6 81/2/6
f 81/2/6 79/2/6 82/2/6
f 82/2/6 79/2/6 83/2/6
f 83/2/6 79/2/6 84/2/6
f 79/4/6 80/4/6 85/4/6
f 84/2/6 79/2/6 85/2/6
f 80/2/6 78/2/6 86/2/6
f 85/4/6 80/4/6 86/4/6
f 86/2/6 78/2/6 87/2/6
f 78/2/6 68/2/6 88/2/6
f 87/2/6 78/2/6 88/2/6
f 65/3/6 81/3/6 89/3/6
f 81/4/6 82/4/6 89/4/6
f 82/2/6 83/2/6 90/2/6
f 89/4/6 82/4/6 90/4/6
f 83/5/6 84/5/6 91/5/6
f 90/2/6 83/2/6 91/2/6
f 84/2/6 85/2/6 92/2/6
f 91/5/6 84/5/6 92/5/6
f 86/2/6 87/2/6 92/2/6
f 85/2/6 86/2/6 92/2/6
f 87/3/6 88/3/6 93/3/6
f 92/2/6 87/2/6 93/2/6
f 88/2/6 68/2/6 94/2/6
f 93/3/6 88/3/6 94/3/6
f 90/2/6 91/2/6 95/2/6
f 65/3/6 89/3/6 95/3/6
f 93/2/6 94/2/6 95/2/6
f 91/2/6 92/2/6 95/2/6
f 92/2/6 93/2/6 95/2/6
f 89/2/6 90/2/6 95/2/6
f 94/2/6 68/2/6 96/2/6
f 95/2/6 94/2/6 96/2/6
f 68/3/6 66/3/6 96/3/6
f 65/3/6 95/3/6 97/3/6
f 95/3/6 96/3/6 97/3/6
f 96/3/6 66/3/6 98/3/6
f 97/3/6 96/3/6 98/3/6
