# MagicaVoxel @ Ephtracy

# group
o 

# material
mtllib test_plank_4.mtl
usemtl palette

# normals
vn -1 0 0
vn 1 0 0
vn 0 0 1
vn 0 0 -1
vn 0 -1 0
vn 0 1 0

# texcoords
vt 0.279297 0.5
vt 0.939453 0.5
vt 0.970703 0.5
vt 0.974609 0.5

# verts
v -1.6 0 0.4
v -1.6 0 -0.4
v -1.6 0.1 0.3
v -1.6 0.1 -0.3
v -1.6 0.3 0.3
v -1.6 0.3 -0.3
v -1.6 0.4 0.4
v -1.6 0.4 -0.4
v 1.6 0 0.4
v 1.6 0 -0.4
v 1.6 0.1 0.3
v 1.6 0.1 -0.3
v 1.6 0.3 0.3
v 1.6 0.3 -0.3
v 1.6 0.4 0.4
v 1.6 0.4 -0.4
v -1.6 0 0.4
v -1.6 0.4 0.4
v -1.5 0.1 0.4
v -1.5 0.3 0.4
v 1.5 0.1 0.4
v 1.5 0.3 0.4
v 1.6 0 0.4
v 1.6 0.4 0.4
v -1.6 0 -0.4
v -1.6 0.4 -0.4
v -1.4 0.1 -0.4
v -1.4 0.3 -0.4
v 1.5 0.1 -0.4
v 1.5 0.3 -0.4
v 1.6 0 -0.4
v 1.6 0.4 -0.4
v -1.6 0 0.4
v 1.6 0 0.4
v -1.5 0 0.3
v 1.5 0 0.3
v -1.5 0 -0.3
v 1.5 0 -0.3
v -1.6 0 -0.4
v 1.6 0 -0.4
v -1.6 0.4 0.4
v 1.6 0.4 0.4
v -1.5 0.4 0.3
v 1.5 0.4 0.3
v -0.8 0.4 0.2
v -0.7 0.4 0.2
v -0.8 0.4 0.1
v -0.7 0.4 0.1
v -1.4 0.4 -0.1
v -1.3 0.4 -0.1
v 1.2 0.4 -0.1
v 1.3 0.4 -0.1
v -1.4 0.4 -0.2
v -1.3 0.4 -0.2
v 1.2 0.4 -0.2
v 1.3 0.4 -0.2
v 1.4 0.4 -0.2
v -1.5 0.4 -0.3
v 1.3 0.4 -0.3
v 1.4 0.4 -0.3
v 1.5 0.4 -0.3
v -1.6 0.4 -0.4
v 1.6 0.4 -0.4

# faces
f 3/4/1 2/4/1 1/4/1
f 4/4/1 2/4/1 3/4/1
f 5/4/1 3/4/1 1/4/1
f 5/3/1 4/3/1 3/3/1
f 6/4/1 2/4/1 4/4/1
f 6/3/1 4/3/1 5/3/1
f 7/4/1 5/4/1 1/4/1
f 7/4/1 6/4/1 5/4/1
f 8/4/1 2/4/1 6/4/1
f 8/4/1 6/4/1 7/4/1
f 9/4/2 10/4/2 11/4/2
f 11/4/2 10/4/2 12/4/2
f 9/4/2 11/4/2 13/4/2
f 11/3/2 12/3/2 13/3/2
f 12/4/2 10/4/2 14/4/2
f 13/3/2 12/3/2 14/3/2
f 9/4/2 13/4/2 15/4/2
f 13/4/2 14/4/2 15/4/2
f 14/4/2 10/4/2 16/4/2
f 15/4/2 14/4/2 16/4/2
f 19/4/3 18/4/3 17/4/3
f 20/4/3 18/4/3 19/4/3
f 21/4/3 19/4/3 17/4/3
f 21/3/3 20/3/3 19/3/3
f 22/4/3 18/4/3 20/4/3
f 22/3/3 20/3/3 21/3/3
f 23/4/3 21/4/3 17/4/3
f 23/4/3 22/4/3 21/4/3
f 24/4/3 18/4/3 22/4/3
f 24/4/3 22/4/3 23/4/3
f 25/4/4 26/4/4 27/4/4
f 27/4/4 26/4/4 28/4/4
f 25/4/4 27/4/4 29/4/4
f 27/3/4 28/3/4 29/3/4
f 28/4/4 26/4/4 30/4/4
f 29/3/4 28/3/4 30/3/4
f 25/4/4 29/4/4 31/4/4
f 29/4/4 30/4/4 31/4/4
f 30/4/4 26/4/4 32/4/4
f 31/4/4 30/4/4 32/4/4
f 35/4/5 34/4/5 33/4/5
f 36/4/5 34/4/5 35/4/5
f 37/4/5 35/4/5 33/4/5
f 37/3/5 36/3/5 35/3/5
f 38/4/5 34/4/5 36/4/5
f 38/3/5 36/3/5 37/3/5
f 39/4/5 37/4/5 33/4/5
f 39/4/5 38/4/5 37/4/5
f 40/4/5 34/4/5 38/4/5
f 40/4/5 38/4/5 39/4/5
f 41/4/6 42/4/6 43/4/6
f 43/4/6 42/4/6 44/4/6
f 43/3/6 44/3/6 45/3/6
f 45/3/6 44/3/6 46/3/6
f 43/3/6 45/3/6 47/3/6
f 45/2/6 46/2/6 47/2/6
f 46/3/6 44/3/6 48/3/6
f 47/2/6 46/2/6 48/2/6
f 43/3/6 47/3/6 49/3/6
f 47/3/6 48/3/6 49/3/6
f 49/3/6 48/3/6 50/3/6
f 48/3/6 44/3/6 51/3/6
f 50/3/6 48/3/6 51/3/6
f 51/3/6 44/3/6 52/3/6
f 49/2/6 50/2/6 53/2/6
f 43/3/6 49/3/6 53/3/6
f 50/3/6 51/3/6 54/3/6
f 53/2/6 50/2/6 54/2/6
f 51/2/6 52/2/6 55/2/6
f 54/3/6 51/3/6 55/3/6
f 52/3/6 44/3/6 56/3/6
f 55/2/6 52/2/6 56/2/6
f 56/3/6 44/3/6 57/3/6
f 41/4/6 43/4/6 58/4/6
f 54/3/6 55/3/6 58/3/6
f 53/3/6 54/3/6 58/3/6
f 55/3/6 56/3/6 58/3/6
f 43/3/6 53/3/6 58/3/6
f 56/2/6 57/2/6 59/2/6
f 58/3/6 56/3/6 59/3/6
f 57/3/6 44/3/6 60/3/6
f 59/2/6 57/2/6 60/2/6
f 44/4/6 42/4/6 61/4/6
f 60/3/6 44/3/6 61/3/6
f 58/4/6 59/4/6 62/4/6
f 59/4/6 60/4/6 62/4/6
f 60/4/6 61/4/6 62/4/6
f 41/4/6 58/4/6 62/4/6
f 61/4/6 42/4/6 63/4/6
f 62/4/6 61/4/6 63/4/6
