# MagicaVoxel @ Ephtracy

# group
o 

# material
mtllib test_plank_2.mtl
usemtl palette

# normals
vn -1 0 0
vn 1 0 0
vn 0 0 1
vn 0 0 -1
vn 0 -1 0
vn 0 1 0

# texcoords
vt 0.279297 0.5
vt 0.951172 0.5
vt 0.970703 0.5
vt 0.974609 0.5
vt 0.982422 0.5
vt 0.990234 0.5

# verts
v -1.6 0 0.4
v -1.6 0 -0.4
v -1.6 0.1 0.3
v -1.6 0.1 -0.3
v -1.6 0.3 0.3
v -1.6 0.3 -0.3
v -1.6 0.4 0.4
v -1.6 0.4 -0.4
v 1.6 0 0.4
v 1.6 0 -0.4
v 1.6 0.1 0.3
v 1.6 0.1 -0.3
v 1.6 0.2 0.2
v 1.6 0.2 0
v 1.6 0.2 -0.2
v 1.6 0.3 0.3
v 1.6 0.3 0.2
v 1.6 0.3 0
v 1.6 0.3 -0.2
v 1.6 0.3 -0.3
v 1.6 0.4 0.4
v 1.6 0.4 -0.4
v -1.6 0 0.4
v -1.6 0.4 0.4
v -1.5 0.1 0.4
v -1.5 0.3 0.4
v -0.5 0.1 0.4
v -0.5 0.2 0.4
v -0.1 0.1 0.4
v -0.1 0.2 0.4
v 0.3 0.1 0.4
v 0.3 0.3 0.4
v 0.5 0.1 0.4
v 0.5 0.3 0.4
v 1.1 0.2 0.4
v 1.1 0.3 0.4
v 1.2 0.2 0.4
v 1.2 0.3 0.4
v 1.5 0.1 0.4
v 1.5 0.3 0.4
v 1.6 0 0.4
v 1.6 0.4 0.4
v -1.6 0 -0.4
v -1.6 0.4 -0.4
v -1.4 0.1 -0.4
v -1.4 0.3 -0.4
v -1 0.2 -0.4
v -1 0.3 -0.4
v -0.5 0.2 -0.4
v -0.5 0.3 -0.4
v 0 0.1 -0.4
v 0 0.2 -0.4
v 0.1 0.1 -0.4
v 0.1 0.2 -0.4
v 0.9 0.1 -0.4
v 0.9 0.3 -0.4
v 1.2 0.1 -0.4
v 1.2 0.3 -0.4
v 1.5 0.1 -0.4
v 1.5 0.3 -0.4
v 1.6 0 -0.4
v 1.6 0.4 -0.4
v -1.6 0 0.4
v 1.6 0 0.4
v -1.5 0 0.3
v 1.5 0 0.3
v -1.5 0 -0.3
v 1.5 0 -0.3
v -1.6 0 -0.4
v 1.6 0 -0.4
v -1.6 0.4 0.4
v 1.6 0.4 0.4
v -1.5 0.4 0.3
v 1.5 0.4 0.3
v -1.3 0.4 0.2
v -1.2 0.4 0.2
v -1.1 0.4 0.2
v -0.9 0.4 0.2
v -0.7 0.4 0.2
v -0.6 0.4 0.2
v -0.5 0.4 0.2
v 0.1 0.4 0.2
v 0.2 0.4 0.2
v 0.6 0.4 0.2
v 0.7 0.4 0.2
v 0.9 0.4 0.2
v 1.1 0.4 0.2
v -1.1 0.4 0.1
v -0.9 0.4 0.1
v -0.7 0.4 0.1
v -0.5 0.4 0.1
v -0.4 0.4 0.1
v 0.1 0.4 0.1
v 0.2 0.4 0.1
v 0.5 0.4 0.1
v 0.6 0.4 0.1
v 0.9 0.4 0.1
v 1.1 0.4 0.1
v -1.2 0.4 0
v -1 0.4 0
v -0.6 0.4 0
v -0.5 0.4 0
v -0.4 0.4 0
v -0.3 0.4 0
v -0.2 0.4 0
v 0.3 0.4 0
v -1.5 0.4 -0.1
v -1.3 0.4 -0.1
v -1.1 0.4 -0.1
v -1 0.4 -0.1
v -0.9 0.4 -0.1
v -0.5 0.4 -0.1
v -0.4 0.4 -0.1
v -0.2 0.4 -0.1
v 0.3 0.4 -0.1
v 0.5 0.4 -0.1
v 0.7 0.4 -0.1
v 1.2 0.4 -0.1
v -1.5 0.4 -0.2
v -1.3 0.4 -0.2
v -1.1 0.4 -0.2
v -1 0.4 -0.2
v -0.9 0.4 -0.2
v -0.4 0.4 -0.2
v -0.3 0.4 -0.2
v 0.7 0.4 -0.2
v 1.2 0.4 -0.2
v -1.5 0.4 -0.3
v 1.5 0.4 -0.3
v -1.6 0.4 -0.4
v 1.6 0.4 -0.4

# faces
f 3/4/1 2/4/1 1/4/1
f 4/4/1 2/4/1 3/4/1
f 5/4/1 3/4/1 1/4/1
f 5/3/1 4/3/1 3/3/1
f 6/4/1 2/4/1 4/4/1
f 6/3/1 4/3/1 5/3/1
f 7/4/1 5/4/1 1/4/1
f 7/4/1 6/4/1 5/4/1
f 8/4/1 2/4/1 6/4/1
f 8/4/1 6/4/1 7/4/1
f 9/4/2 10/4/2 11/4/2
f 11/4/2 10/4/2 12/4/2
f 11/3/2 12/3/2 13/3/2
f 13/3/2 12/3/2 14/3/2
f 14/3/2 12/3/2 15/3/2
f 9/4/2 11/4/2 16/4/2
f 11/3/2 13/3/2 16/3/2
f 13/2/2 14/2/2 17/2/2
f 16/3/2 13/3/2 17/3/2
f 14/5/2 15/5/2 18/5/2
f 17/2/2 14/2/2 18/2/2
f 15/3/2 12/3/2 19/3/2
f 18/5/2 15/5/2 19/5/2
f 12/4/2 10/4/2 20/4/2
f 19/3/2 12/3/2 20/3/2
f 17/4/2 18/4/2 21/4/2
f 18/4/2 19/4/2 21/4/2
f 19/4/2 20/4/2 21/4/2
f 9/4/2 16/4/2 21/4/2
f 16/4/2 17/4/2 21/4/2
f 20/4/2 10/4/2 22/4/2
f 21/4/2 20/4/2 22/4/2
f 25/4/3 24/4/3 23/4/3
f 26/4/3 24/4/3 25/4/3
f 27/4/3 25/4/3 23/4/3
f 27/3/3 26/3/3 25/3/3
f 28/3/3 26/3/3 27/3/3
f 29/4/3 27/4/3 23/4/3
f 29/2/3 28/2/3 27/2/3
f 30/3/3 26/3/3 28/3/3
f 30/2/3 28/2/3 29/2/3
f 31/4/3 29/4/3 23/4/3
f 31/3/3 30/3/3 29/3/3
f 32/4/3 24/4/3 26/4/3
f 32/3/3 30/3/3 31/3/3
f 32/3/3 26/3/3 30/3/3
f 33/4/3 31/4/3 23/4/3
f 33/5/3 32/5/3 31/5/3
f 34/4/3 24/4/3 32/4/3
f 34/5/3 32/5/3 33/5/3
f 35/3/3 34/3/3 33/3/3
f 36/4/3 24/4/3 34/4/3
f 36/3/3 34/3/3 35/3/3
f 37/3/3 35/3/3 33/3/3
f 37/5/3 36/5/3 35/5/3
f 38/4/3 24/4/3 36/4/3
f 38/5/3 36/5/3 37/5/3
f 39/4/3 33/4/3 23/4/3
f 39/3/3 37/3/3 33/3/3
f 39/3/3 38/3/3 37/3/3
f 40/4/3 24/4/3 38/4/3
f 40/3/3 38/3/3 39/3/3
f 41/4/3 39/4/3 23/4/3
f 41/4/3 40/4/3 39/4/3
f 42/4/3 24/4/3 40/4/3
f 42/4/3 40/4/3 41/4/3
f 43/4/4 44/4/4 45/4/4
f 45/4/4 44/4/4 46/4/4
f 45/3/4 46/3/4 47/3/4
f 46/4/4 44/4/4 48/4/4
f 47/3/4 46/3/4 48/3/4
f 45/3/4 47/3/4 49/3/4
f 47/5/4 48/5/4 49/5/4
f 48/4/4 44/4/4 50/4/4
f 49/5/4 48/5/4 50/5/4
f 43/4/4 45/4/4 51/4/4
f 45/3/4 49/3/4 51/3/4
f 49/3/4 50/3/4 51/3/4
f 51/3/4 50/3/4 52/3/4
f 43/4/4 51/4/4 53/4/4
f 51/5/4 52/5/4 53/5/4
f 52/3/4 50/3/4 54/3/4
f 53/5/4 52/5/4 54/5/4
f 43/4/4 53/4/4 55/4/4
f 53/3/4 54/3/4 55/3/4
f 50/4/4 44/4/4 56/4/4
f 55/3/4 54/3/4 56/3/4
f 54/3/4 50/3/4 56/3/4
f 43/4/4 55/4/4 57/4/4
f 55/5/4 56/5/4 57/5/4
f 56/4/4 44/4/4 58/4/4
f 57/5/4 56/5/4 58/5/4
f 43/4/4 57/4/4 59/4/4
f 57/3/4 58/3/4 59/3/4
f 58/4/4 44/4/4 60/4/4
f 59/3/4 58/3/4 60/3/4
f 43/4/4 59/4/4 61/4/4
f 59/4/4 60/4/4 61/4/4
f 60/4/4 44/4/4 62/4/4
f 61/4/4 60/4/4 62/4/4
f 65/4/5 64/4/5 63/4/5
f 66/4/5 64/4/5 65/4/5
f 67/4/5 65/4/5 63/4/5
f 67/3/5 66/3/5 65/3/5
f 68/4/5 64/4/5 66/4/5
f 68/3/5 66/3/5 67/3/5
f 69/4/5 67/4/5 63/4/5
f 69/4/5 68/4/5 67/4/5
f 70/4/5 64/4/5 68/4/5
f 70/4/5 68/4/5 69/4/5
f 71/4/6 72/4/6 73/4/6
f 73/4/6 72/4/6 74/4/6
f 73/3/6 74/3/6 75/3/6
f 75/3/6 74/3/6 76/3/6
f 76/3/6 74/3/6 77/3/6
f 77/3/6 74/3/6 78/3/6
f 78/3/6 74/3/6 79/3/6
f 79/3/6 74/3/6 80/3/6
f 80/3/6 74/3/6 81/3/6
f 81/3/6 74/3/6 82/3/6
f 82/3/6 74/3/6 83/3/6
f 83/3/6 74/3/6 84/3/6
f 84/3/6 74/3/6 85/3/6
f 85/3/6 74/3/6 86/3/6
f 86/3/6 74/3/6 87/3/6
f 76/3/6 77/3/6 88/3/6
f 77/5/6 78/5/6 88/5/6
f 78/4/6 79/4/6 89/4/6
f 88/5/6 78/5/6 89/5/6
f 79/3/6 80/3/6 90/3/6
f 89/4/6 79/4/6 90/4/6
f 80/2/6 81/2/6 91/2/6
f 81/3/6 82/3/6 91/3/6
f 91/3/6 82/3/6 92/3/6
f 82/2/6 83/2/6 93/2/6
f 92/3/6 82/3/6 93/3/6
f 83/3/6 84/3/6 94/3/6
f 93/2/6 83/2/6 94/2/6
f 94/3/6 84/3/6 95/3/6
f 84/2/6 85/2/6 96/2/6
f 95/3/6 84/3/6 96/3/6
f 86/6/6 87/6/6 97/6/6
f 85/3/6 86/3/6 97/3/6
f 87/3/6 74/3/6 98/3/6
f 97/6/6 87/6/6 98/6/6
f 75/2/6 76/2/6 99/2/6
f 76/3/6 88/3/6 99/3/6
f 88/3/6 89/3/6 99/3/6
f 89/3/6 90/3/6 99/3/6
f 99/3/6 90/3/6 100/3/6
f 90/3/6 80/3/6 101/3/6
f 100/3/6 90/3/6 101/3/6
f 80/2/6 91/2/6 101/2/6
f 91/2/6 92/2/6 101/2/6
f 101/2/6 92/2/6 102/2/6
f 93/3/6 94/3/6 103/3/6
f 102/2/6 92/2/6 103/2/6
f 92/3/6 93/3/6 103/3/6
f 94/3/6 95/3/6 103/3/6
f 103/3/6 95/3/6 104/3/6
f 104/3/6 95/3/6 105/3/6
f 105/3/6 95/3/6 106/3/6
f 71/4/6 73/4/6 107/4/6
f 73/3/6 75/3/6 107/3/6
f 99/2/6 100/2/6 108/2/6
f 107/3/6 75/3/6 108/3/6
f 75/2/6 99/2/6 108/2/6
f 108/2/6 100/2/6 109/2/6
f 101/3/6 102/3/6 110/3/6
f 109/2/6 100/2/6 110/2/6
f 100/3/6 101/3/6 110/3/6
f 110/3/6 102/3/6 111/3/6
f 102/2/6 103/2/6 112/2/6
f 111/3/6 102/3/6 112/3/6
f 103/2/6 104/2/6 112/2/6
f 112/2/6 104/2/6 113/2/6
f 105/5/6 106/5/6 114/5/6
f 104/3/6 105/3/6 114/3/6
f 106/3/6 95/3/6 115/3/6
f 114/5/6 106/5/6 115/5/6
f 95/2/6 96/2/6 116/2/6
f 115/3/6 95/3/6 116/3/6
f 85/3/6 97/3/6 117/3/6
f 116/2/6 96/2/6 117/2/6
f 96/2/6 85/2/6 117/2/6
f 97/3/6 98/3/6 117/3/6
f 98/3/6 74/3/6 118/3/6
f 117/3/6 98/3/6 118/3/6
f 71/4/6 107/4/6 119/4/6
f 107/5/6 108/5/6 119/5/6
f 108/3/6 109/3/6 120/3/6
f 119/5/6 108/5/6 120/5/6
f 109/2/6 110/2/6 121/2/6
f 120/3/6 109/3/6 121/3/6
f 110/6/6 111/6/6 122/6/6
f 121/2/6 110/2/6 122/2/6
f 111/3/6 112/3/6 123/3/6
f 122/6/6 111/6/6 123/6/6
f 112/3/6 113/3/6 123/3/6
f 113/2/6 104/2/6 124/2/6
f 123/3/6 113/3/6 124/3/6
f 104/3/6 114/3/6 125/3/6
f 124/2/6 104/2/6 125/2/6
f 116/3/6 117/3/6 125/3/6
f 115/3/6 116/3/6 125/3/6
f 114/3/6 115/3/6 125/3/6
f 117/4/6 118/4/6 126/4/6
f 125/3/6 117/3/6 126/3/6
f 118/3/6 74/3/6 127/3/6
f 126/4/6 118/4/6 127/4/6
f 123/3/6 124/3/6 128/3/6
f 122/3/6 123/3/6 128/3/6
f 126/3/6 127/3/6 128/3/6
f 125/3/6 126/3/6 128/3/6
f 71/4/6 119/4/6 128/4/6
f 119/3/6 120/3/6 128/3/6
f 121/3/6 122/3/6 128/3/6
f 120/3/6 121/3/6 128/3/6
f 124/3/6 125/3/6 128/3/6
f 127/3/6 74/3/6 129/3/6
f 128/3/6 127/3/6 129/3/6
f 74/4/6 72/4/6 129/4/6
f 71/4/6 128/4/6 130/4/6
f 128/4/6 129/4/6 130/4/6
f 129/4/6 72/4/6 131/4/6
f 130/4/6 129/4/6 131/4/6
