# MagicaVoxel @ Ephtracy

# group
o 

# material
mtllib zz.mtl
usemtl palette

# normals
vn -1 0 0
vn 1 0 0
vn 0 0 1
vn 0 0 -1
vn 0 -1 0
vn 0 1 0

# texcoords
vt 0.00976563 0.5
vt 0.0136719 0.5
vt 0.0175781 0.5
vt 0.0214844 0.5
vt 0.0253906 0.5
vt 0.0292969 0.5
vt 0.0332031 0.5
vt 0.0371094 0.5
vt 0.0410156 0.5
vt 0.0449219 0.5
vt 0.0488281 0.5
vt 0.0527344 0.5
vt 0.0566406 0.5
vt 0.0605469 0.5
vt 0.0644531 0.5
vt 0.0683594 0.5
vt 0.0722656 0.5
vt 0.0761719 0.5
vt 0.0800781 0.5
vt 0.0839844 0.5
vt 0.0878906 0.5
vt 0.0917969 0.5
vt 0.0957031 0.5
vt 0.0996094 0.5
vt 0.103516 0.5
vt 0.107422 0.5
vt 0.111328 0.5
vt 0.115234 0.5
vt 0.119141 0.5
vt 0.123047 0.5
vt 0.126953 0.5
vt 0.130859 0.5
vt 0.134766 0.5
vt 0.138672 0.5
vt 0.142578 0.5
vt 0.146484 0.5
vt 0.150391 0.5
vt 0.154297 0.5
vt 0.158203 0.5
vt 0.162109 0.5
vt 0.166016 0.5
vt 0.169922 0.5
vt 0.173828 0.5
vt 0.177734 0.5
vt 0.181641 0.5
vt 0.185547 0.5
vt 0.189453 0.5
vt 0.193359 0.5
vt 0.197266 0.5
vt 0.201172 0.5
vt 0.205078 0.5
vt 0.208984 0.5
vt 0.212891 0.5
vt 0.216797 0.5
vt 0.220703 0.5
vt 0.224609 0.5
vt 0.228516 0.5
vt 0.232422 0.5
vt 0.236328 0.5
vt 0.240234 0.5
vt 0.244141 0.5
vt 0.248047 0.5
vt 0.251953 0.5
vt 0.255859 0.5
vt 0.259766 0.5
vt 0.263672 0.5
vt 0.267578 0.5
vt 0.271484 0.5
vt 0.275391 0.5
vt 0.279297 0.5
vt 0.283203 0.5
vt 0.287109 0.5
vt 0.291016 0.5
vt 0.294922 0.5
vt 0.298828 0.5
vt 0.302734 0.5
vt 0.306641 0.5
vt 0.310547 0.5
vt 0.314453 0.5
vt 0.318359 0.5
vt 0.322266 0.5
vt 0.326172 0.5
vt 0.330078 0.5
vt 0.333984 0.5
vt 0.337891 0.5
vt 0.341797 0.5
vt 0.345703 0.5
vt 0.349609 0.5
vt 0.353516 0.5
vt 0.357422 0.5
vt 0.361328 0.5
vt 0.365234 0.5
vt 0.369141 0.5
vt 0.373047 0.5
vt 0.376953 0.5
vt 0.380859 0.5
vt 0.384766 0.5
vt 0.388672 0.5
vt 0.392578 0.5
vt 0.396484 0.5
vt 0.400391 0.5
vt 0.404297 0.5
vt 0.408203 0.5
vt 0.412109 0.5
vt 0.416016 0.5
vt 0.423828 0.5
vt 0.427734 0.5
vt 0.431641 0.5
vt 0.435547 0.5
vt 0.462891 0.5
vt 0.466797 0.5

# verts
v -0.8 0 0.8
v -0.8 0 -0.8
v -0.8 1.6 0.8
v -0.8 1.6 -0.8
v 0.8 0 0.8
v 0.8 0 0.7
v 0.8 0 0.6
v 0.8 0 0.5
v 0.8 0 0.4
v 0.8 0 0.3
v 0.8 0 0.2
v 0.8 0 0.1
v 0.8 0 0
v 0.8 0 -0.1
v 0.8 0 -0.2
v 0.8 0 -0.3
v 0.8 0 -0.4
v 0.8 0 -0.5
v 0.8 0 -0.6
v 0.8 0 -0.7
v 0.8 0 -0.8
v 0.8 0.1 0.8
v 0.8 0.1 0.7
v 0.8 0.1 0.6
v 0.8 0.1 0.5
v 0.8 0.1 0.4
v 0.8 0.1 0.3
v 0.8 0.1 0.2
v 0.8 0.1 0.1
v 0.8 0.1 0
v 0.8 0.1 -0.1
v 0.8 0.1 -0.2
v 0.8 0.1 -0.3
v 0.8 0.1 -0.4
v 0.8 0.1 -0.5
v 0.8 0.1 -0.6
v 0.8 0.1 -0.7
v 0.8 0.1 -0.8
v 0.8 0.2 0.8
v 0.8 0.2 0.7
v 0.8 0.2 0.6
v 0.8 0.2 0.5
v 0.8 0.2 0.4
v 0.8 0.2 0.3
v 0.8 0.2 0.2
v 0.8 0.2 0.1
v 0.8 0.2 0
v 0.8 0.2 -0.1
v 0.8 0.2 -0.2
v 0.8 0.2 -0.3
v 0.8 0.2 -0.4
v 0.8 0.2 -0.5
v 0.8 0.2 -0.6
v 0.8 0.2 -0.7
v 0.8 0.2 -0.8
v 0.8 0.3 0.8
v 0.8 0.3 0.7
v 0.8 0.3 0.6
v 0.8 0.3 0.5
v 0.8 0.3 0.4
v 0.8 0.3 0.3
v 0.8 0.3 0.2
v 0.8 0.3 0.1
v 0.8 0.3 0
v 0.8 0.3 -0.1
v 0.8 0.3 -0.2
v 0.8 0.3 -0.3
v 0.8 0.3 -0.4
v 0.8 0.3 -0.5
v 0.8 0.3 -0.6
v 0.8 0.3 -0.7
v 0.8 0.3 -0.8
v 0.8 0.4 0.8
v 0.8 0.4 0.7
v 0.8 0.4 0.6
v 0.8 0.4 0.5
v 0.8 0.4 0.4
v 0.8 0.4 0.3
v 0.8 0.4 0.2
v 0.8 0.4 0.1
v 0.8 0.4 0
v 0.8 0.4 -0.1
v 0.8 0.4 -0.2
v 0.8 0.4 -0.3
v 0.8 0.4 -0.4
v 0.8 0.4 -0.5
v 0.8 0.4 -0.6
v 0.8 0.4 -0.7
v 0.8 0.4 -0.8
v 0.8 0.5 0.8
v 0.8 0.5 0.7
v 0.8 0.5 0.6
v 0.8 0.5 0.5
v 0.8 0.5 0.4
v 0.8 0.5 0.3
v 0.8 0.5 0.2
v 0.8 0.5 0.1
v 0.8 0.5 0
v 0.8 0.5 -0.1
v 0.8 0.5 -0.2
v 0.8 0.5 -0.3
v 0.8 0.5 -0.4
v 0.8 0.5 -0.5
v 0.8 0.5 -0.6
v 0.8 0.5 -0.7
v 0.8 0.5 -0.8
v 0.8 0.6 0.8
v 0.8 0.6 0.7
v 0.8 0.6 0.6
v 0.8 0.6 0.5
v 0.8 0.6 0.4
v 0.8 0.6 0.3
v 0.8 0.6 0.2
v 0.8 0.6 0.1
v 0.8 0.6 0
v 0.8 0.6 -0.1
v 0.8 0.6 -0.2
v 0.8 0.6 -0.3
v 0.8 0.6 -0.4
v 0.8 0.6 -0.5
v 0.8 0.6 -0.6
v 0.8 0.6 -0.7
v 0.8 0.6 -0.8
v 0.8 0.7 0.8
v 0.8 0.7 0.7
v 0.8 0.7 0.6
v 0.8 0.7 0.5
v 0.8 0.7 0.4
v 0.8 0.7 0.3
v 0.8 0.7 0.2
v 0.8 0.7 0.1
v 0.8 0.7 0
v 0.8 0.7 -0.1
v 0.8 0.7 -0.2
v 0.8 0.7 -0.3
v 0.8 0.7 -0.4
v 0.8 0.7 -0.5
v 0.8 0.7 -0.6
v 0.8 0.7 -0.7
v 0.8 0.7 -0.8
v 0.8 1.6 0.8
v 0.8 1.6 -0.8
v -0.8 0 0.8
v -0.8 1.6 0.8
v 0.7 0 0.8
v 0.7 0.1 0.8
v 0.7 0.2 0.8
v 0.7 0.3 0.8
v 0.7 0.4 0.8
v 0.7 0.5 0.8
v 0.7 0.6 0.8
v 0.7 0.7 0.8
v 0.8 0 0.8
v 0.8 0.1 0.8
v 0.8 0.2 0.8
v 0.8 0.3 0.8
v 0.8 0.4 0.8
v 0.8 0.5 0.8
v 0.8 0.6 0.8
v 0.8 0.7 0.8
v 0.8 1.6 0.8
v -0.8 0 -0.8
v -0.8 1.6 -0.8
v 0.7 0 -0.8
v 0.7 0.1 -0.8
v 0.7 0.2 -0.8
v 0.7 0.3 -0.8
v 0.7 0.4 -0.8
v 0.7 0.5 -0.8
v 0.7 0.6 -0.8
v 0.7 0.7 -0.8
v 0.8 0 -0.8
v 0.8 0.1 -0.8
v 0.8 0.2 -0.8
v 0.8 0.3 -0.8
v 0.8 0.4 -0.8
v 0.8 0.5 -0.8
v 0.8 0.6 -0.8
v 0.8 0.7 -0.8
v 0.8 1.6 -0.8
v -0.8 0 0.8
v 0.7 0 0.8
v 0.8 0 0.8
v 0.7 0 0.7
v 0.8 0 0.7
v 0.7 0 0.6
v 0.8 0 0.6
v 0.7 0 0.5
v 0.8 0 0.5
v 0.7 0 0.4
v 0.8 0 0.4
v 0.7 0 0.3
v 0.8 0 0.3
v 0.7 0 0.2
v 0.8 0 0.2
v 0.7 0 0.1
v 0.8 0 0.1
v 0.7 0 0
v 0.8 0 0
v 0.7 0 -0.1
v 0.8 0 -0.1
v 0.7 0 -0.2
v 0.8 0 -0.2
v 0.7 0 -0.3
v 0.8 0 -0.3
v 0.7 0 -0.4
v 0.8 0 -0.4
v 0.7 0 -0.5
v 0.8 0 -0.5
v 0.7 0 -0.6
v 0.8 0 -0.6
v 0.7 0 -0.7
v 0.8 0 -0.7
v -0.8 0 -0.8
v 0.7 0 -0.8
v 0.8 0 -0.8
v -0.8 1.6 0.8
v 0.8 1.6 0.8
v -0.8 1.6 -0.8
v 0.8 1.6 -0.8

# faces
f 3/2/1 2/2/1 1/2/1
f 4/2/1 2/2/1 3/2/1
f 5/1/2 6/1/2 22/1/2
f 6/2/2 7/2/2 23/2/2
f 22/1/2 6/1/2 23/1/2
f 7/3/2 8/3/2 24/3/2
f 23/2/2 7/2/2 24/2/2
f 8/4/2 9/4/2 25/4/2
f 24/3/2 8/3/2 25/3/2
f 9/5/2 10/5/2 26/5/2
f 25/4/2 9/4/2 26/4/2
f 10/6/2 11/6/2 27/6/2
f 26/5/2 10/5/2 27/5/2
f 11/14/2 12/14/2 28/14/2
f 27/6/2 11/6/2 28/6/2
f 12/13/2 13/13/2 29/13/2
f 28/14/2 12/14/2 29/14/2
f 13/12/2 14/12/2 30/12/2
f 29/13/2 13/13/2 30/13/2
f 14/11/2 15/11/2 31/11/2
f 30/12/2 14/12/2 31/12/2
f 15/10/2 16/10/2 32/10/2
f 31/11/2 15/11/2 32/11/2
f 16/9/2 17/9/2 33/9/2
f 32/10/2 16/10/2 33/10/2
f 17/8/2 18/8/2 34/8/2
f 33/9/2 17/9/2 34/9/2
f 18/7/2 19/7/2 35/7/2
f 34/8/2 18/8/2 35/8/2
f 19/22/2 20/22/2 36/22/2
f 35/7/2 19/7/2 36/7/2
f 20/21/2 21/21/2 37/21/2
f 36/22/2 20/22/2 37/22/2
f 37/21/2 21/21/2 38/21/2
f 22/37/2 23/37/2 39/37/2
f 23/38/2 24/38/2 40/38/2
f 39/37/2 23/37/2 40/37/2
f 24/30/2 25/30/2 41/30/2
f 40/38/2 24/38/2 41/38/2
f 25/29/2 26/29/2 42/29/2
f 41/30/2 25/30/2 42/30/2
f 26/28/2 27/28/2 43/28/2
f 42/29/2 26/29/2 43/29/2
f 27/27/2 28/27/2 44/27/2
f 43/28/2 27/28/2 44/28/2
f 28/26/2 29/26/2 45/26/2
f 44/27/2 28/27/2 45/27/2
f 29/25/2 30/25/2 46/25/2
f 45/26/2 29/26/2 46/26/2
f 30/24/2 31/24/2 47/24/2
f 46/25/2 30/25/2 47/25/2
f 31/23/2 32/23/2 48/23/2
f 47/24/2 31/24/2 48/24/2
f 32/15/2 33/15/2 49/15/2
f 48/23/2 32/23/2 49/23/2
f 33/16/2 34/16/2 50/16/2
f 49/15/2 33/15/2 50/15/2
f 34/17/2 35/17/2 51/17/2
f 50/16/2 34/16/2 51/16/2
f 35/18/2 36/18/2 52/18/2
f 51/17/2 35/17/2 52/17/2
f 36/19/2 37/19/2 53/19/2
f 52/18/2 36/18/2 53/18/2
f 37/20/2 38/20/2 54/20/2
f 53/19/2 37/19/2 54/19/2
f 54/20/2 38/20/2 55/20/2
f 39/36/2 40/36/2 56/36/2
f 40/35/2 41/35/2 57/35/2
f 56/36/2 40/36/2 57/36/2
f 41/34/2 42/34/2 58/34/2
f 57/35/2 41/35/2 58/35/2
f 42/33/2 43/33/2 59/33/2
f 58/34/2 42/34/2 59/34/2
f 43/32/2 44/32/2 60/32/2
f 59/33/2 43/33/2 60/33/2
f 44/31/2 45/31/2 61/31/2
f 60/32/2 44/32/2 61/32/2
f 45/39/2 46/39/2 62/39/2
f 61/31/2 45/31/2 62/31/2
f 46/40/2 47/40/2 63/40/2
f 62/39/2 46/39/2 63/39/2
f 47/41/2 48/41/2 64/41/2
f 63/40/2 47/40/2 64/40/2
f 48/42/2 49/42/2 65/42/2
f 64/41/2 48/41/2 65/41/2
f 49/43/2 50/43/2 66/43/2
f 65/42/2 49/42/2 66/42/2
f 50/44/2 51/44/2 67/44/2
f 66/43/2 50/43/2 67/43/2
f 51/45/2 52/45/2 68/45/2
f 67/44/2 51/44/2 68/44/2
f 52/46/2 53/46/2 69/46/2
f 68/45/2 52/45/2 69/45/2
f 53/54/2 54/54/2 70/54/2
f 69/46/2 53/46/2 70/46/2
f 54/53/2 55/53/2 71/53/2
f 70/54/2 54/54/2 71/54/2
f 71/53/2 55/53/2 72/53/2
f 56/70/2 57/70/2 73/70/2
f 57/62/2 58/62/2 74/62/2
f 73/70/2 57/70/2 74/70/2
f 58/61/2 59/61/2 75/61/2
f 74/62/2 58/62/2 75/62/2
f 59/60/2 60/60/2 76/60/2
f 75/61/2 59/61/2 76/61/2
f 60/60/2 61/60/2 76/60/2
f 76/60/2 61/60/2 77/60/2
f 61/59/2 62/59/2 78/59/2
f 77/60/2 61/60/2 78/60/2
f 62/58/2 63/58/2 79/58/2
f 78/59/2 62/59/2 79/59/2
f 63/57/2 64/57/2 80/57/2
f 79/58/2 63/58/2 80/58/2
f 64/56/2 65/56/2 81/56/2
f 80/57/2 64/57/2 81/57/2
f 65/55/2 66/55/2 82/55/2
f 81/56/2 65/56/2 82/56/2
f 66/47/2 67/47/2 83/47/2
f 82/55/2 66/55/2 83/55/2
f 67/48/2 68/48/2 84/48/2
f 83/47/2 67/47/2 84/47/2
f 68/49/2 69/49/2 85/49/2
f 84/48/2 68/48/2 85/48/2
f 69/50/2 70/50/2 86/50/2
f 85/49/2 69/49/2 86/49/2
f 70/51/2 71/51/2 87/51/2
f 86/50/2 70/50/2 87/50/2
f 71/52/2 72/52/2 88/52/2
f 87/51/2 71/51/2 88/51/2
f 88/52/2 72/52/2 89/52/2
f 73/69/2 74/69/2 90/69/2
f 74/68/2 75/68/2 91/68/2
f 90/69/2 74/69/2 91/69/2
f 75/67/2 76/67/2 92/67/2
f 91/68/2 75/68/2 92/68/2
f 76/66/2 77/66/2 93/66/2
f 92/67/2 76/67/2 93/67/2
f 77/65/2 78/65/2 94/65/2
f 93/66/2 77/66/2 94/66/2
f 78/64/2 79/64/2 95/64/2
f 94/65/2 78/65/2 95/65/2
f 79/63/2 80/63/2 96/63/2
f 95/64/2 79/64/2 96/64/2
f 80/71/2 81/71/2 97/71/2
f 96/63/2 80/63/2 97/63/2
f 81/72/2 82/72/2 98/72/2
f 97/71/2 81/71/2 98/71/2
f 82/73/2 83/73/2 99/73/2
f 98/72/2 82/72/2 99/72/2
f 83/74/2 84/74/2 100/74/2
f 99/73/2 83/73/2 100/73/2
f 84/75/2 85/75/2 101/75/2
f 100/74/2 84/74/2 101/74/2
f 85/76/2 86/76/2 102/76/2
f 101/75/2 85/75/2 102/75/2
f 86/77/2 87/77/2 103/77/2
f 102/76/2 86/76/2 103/76/2
f 87/78/2 88/78/2 104/78/2
f 103/77/2 87/77/2 104/77/2
f 88/86/2 89/86/2 105/86/2
f 104/78/2 88/78/2 105/78/2
f 105/86/2 89/86/2 106/86/2
f 90/102/2 91/102/2 107/102/2
f 91/94/2 92/94/2 108/94/2
f 107/102/2 91/102/2 108/102/2
f 92/93/2 93/93/2 109/93/2
f 108/94/2 92/94/2 109/94/2
f 93/92/2 94/92/2 110/92/2
f 109/93/2 93/93/2 110/93/2
f 94/91/2 95/91/2 111/91/2
f 110/92/2 94/92/2 111/92/2
f 95/90/2 96/90/2 112/90/2
f 111/91/2 95/91/2 112/91/2
f 96/89/2 97/89/2 113/89/2
f 112/90/2 96/90/2 113/90/2
f 97/88/2 98/88/2 114/88/2
f 113/89/2 97/89/2 114/89/2
f 98/87/2 99/87/2 115/87/2
f 114/88/2 98/88/2 115/88/2
f 99/79/2 100/79/2 116/79/2
f 115/87/2 99/87/2 116/87/2
f 100/80/2 101/80/2 117/80/2
f 116/79/2 100/79/2 117/79/2
f 101/81/2 102/81/2 118/81/2
f 117/80/2 101/80/2 118/80/2
f 102/82/2 103/82/2 119/82/2
f 118/81/2 102/81/2 119/81/2
f 103/83/2 104/83/2 120/83/2
f 119/82/2 103/82/2 120/82/2
f 104/84/2 105/84/2 121/84/2
f 120/83/2 104/83/2 121/83/2
f 105/85/2 106/85/2 122/85/2
f 121/84/2 105/84/2 122/84/2
f 122/85/2 106/85/2 123/85/2
f 107/101/2 108/101/2 124/101/2
f 108/100/2 109/100/2 125/100/2
f 124/101/2 108/101/2 125/101/2
f 109/99/2 110/99/2 126/99/2
f 125/100/2 109/100/2 126/100/2
f 110/98/2 111/98/2 127/98/2
f 126/99/2 110/99/2 127/99/2
f 111/97/2 112/97/2 128/97/2
f 127/98/2 111/98/2 128/98/2
f 112/96/2 113/96/2 129/96/2
f 128/97/2 112/97/2 129/97/2
f 113/95/2 114/95/2 130/95/2
f 129/96/2 113/96/2 130/96/2
f 114/103/2 115/103/2 131/103/2
f 130/95/2 114/95/2 131/95/2
f 115/105/2 116/105/2 132/105/2
f 131/103/2 115/103/2 132/103/2
f 116/104/2 117/104/2 133/104/2
f 132/105/2 116/105/2 133/105/2
f 117/106/2 118/106/2 134/106/2
f 133/104/2 117/104/2 134/104/2
f 118/107/2 119/107/2 135/107/2
f 134/106/2 118/106/2 135/106/2
f 119/108/2 120/108/2 136/108/2
f 135/107/2 119/107/2 136/107/2
f 120/109/2 121/109/2 137/109/2
f 136/108/2 120/108/2 137/108/2
f 121/111/2 122/111/2 138/111/2
f 137/109/2 121/109/2 138/109/2
f 122/110/2 123/110/2 139/110/2
f 138/111/2 122/111/2 139/111/2
f 139/110/2 123/110/2 140/110/2
f 125/2/2 126/2/2 141/2/2
f 131/2/2 132/2/2 141/2/2
f 139/2/2 140/2/2 141/2/2
f 138/2/2 139/2/2 141/2/2
f 137/2/2 138/2/2 141/2/2
f 136/2/2 137/2/2 141/2/2
f 135/2/2 136/2/2 141/2/2
f 134/2/2 135/2/2 141/2/2
f 133/2/2 134/2/2 141/2/2
f 132/2/2 133/2/2 141/2/2
f 124/2/2 125/2/2 141/2/2
f 130/2/2 131/2/2 141/2/2
f 129/2/2 130/2/2 141/2/2
f 128/2/2 129/2/2 141/2/2
f 127/2/2 128/2/2 141/2/2
f 126/2/2 127/2/2 141/2/2
f 141/2/2 140/2/2 142/2/2
f 145/2/3 144/2/3 143/2/3
f 146/2/3 144/2/3 145/2/3
f 147/2/3 144/2/3 146/2/3
f 148/2/3 144/2/3 147/2/3
f 149/2/3 144/2/3 148/2/3
f 150/2/3 144/2/3 149/2/3
f 151/2/3 144/2/3 150/2/3
f 152/2/3 144/2/3 151/2/3
f 153/1/3 146/1/3 145/1/3
f 154/37/3 147/37/3 146/37/3
f 154/1/3 146/1/3 153/1/3
f 155/36/3 148/36/3 147/36/3
f 155/37/3 147/37/3 154/37/3
f 156/70/3 149/70/3 148/70/3
f 156/36/3 148/36/3 155/36/3
f 157/69/3 150/69/3 149/69/3
f 157/70/3 149/70/3 156/70/3
f 158/102/3 151/102/3 150/102/3
f 158/69/3 150/69/3 157/69/3
f 159/101/3 152/101/3 151/101/3
f 159/102/3 151/102/3 158/102/3
f 160/2/3 144/2/3 152/2/3
f 160/101/3 152/101/3 159/101/3
f 161/2/3 144/2/3 160/2/3
f 162/2/4 163/2/4 164/2/4
f 164/2/4 163/2/4 165/2/4
f 165/2/4 163/2/4 166/2/4
f 166/2/4 163/2/4 167/2/4
f 167/2/4 163/2/4 168/2/4
f 168/2/4 163/2/4 169/2/4
f 169/2/4 163/2/4 170/2/4
f 170/2/4 163/2/4 171/2/4
f 164/21/4 165/21/4 172/21/4
f 165/20/4 166/20/4 173/20/4
f 172/21/4 165/21/4 173/21/4
f 166/53/4 167/53/4 174/53/4
f 173/20/4 166/20/4 174/20/4
f 167/52/4 168/52/4 175/52/4
f 174/53/4 167/53/4 175/53/4
f 168/86/4 169/86/4 176/86/4
f 175/52/4 168/52/4 176/52/4
f 169/85/4 170/85/4 177/85/4
f 176/86/4 169/86/4 177/86/4
f 170/110/4 171/110/4 178/110/4
f 177/85/4 170/85/4 178/85/4
f 171/2/4 163/2/4 179/2/4
f 178/110/4 171/110/4 179/110/4
f 179/2/4 163/2/4 180/2/4
f 184/2/5 182/2/5 181/2/5
f 184/1/5 183/1/5 182/1/5
f 185/1/5 183/1/5 184/1/5
f 186/2/5 184/2/5 181/2/5
f 186/2/5 185/2/5 184/2/5
f 187/2/5 185/2/5 186/2/5
f 188/2/5 186/2/5 181/2/5
f 188/3/5 187/3/5 186/3/5
f 189/3/5 187/3/5 188/3/5
f 190/2/5 188/2/5 181/2/5
f 190/4/5 189/4/5 188/4/5
f 191/4/5 189/4/5 190/4/5
f 192/2/5 190/2/5 181/2/5
f 192/5/5 191/5/5 190/5/5
f 193/5/5 191/5/5 192/5/5
f 194/2/5 192/2/5 181/2/5
f 194/6/5 193/6/5 192/6/5
f 195/6/5 193/6/5 194/6/5
f 196/2/5 194/2/5 181/2/5
f 196/14/5 195/14/5 194/14/5
f 197/14/5 195/14/5 196/14/5
f 198/2/5 196/2/5 181/2/5
f 198/13/5 197/13/5 196/13/5
f 199/13/5 197/13/5 198/13/5
f 200/2/5 198/2/5 181/2/5
f 200/12/5 199/12/5 198/12/5
f 201/12/5 199/12/5 200/12/5
f 202/2/5 200/2/5 181/2/5
f 202/11/5 201/11/5 200/11/5
f 203/11/5 201/11/5 202/11/5
f 204/2/5 202/2/5 181/2/5
f 204/10/5 203/10/5 202/10/5
f 205/10/5 203/10/5 204/10/5
f 206/2/5 204/2/5 181/2/5
f 206/9/5 205/9/5 204/9/5
f 207/9/5 205/9/5 206/9/5
f 208/2/5 206/2/5 181/2/5
f 208/8/5 207/8/5 206/8/5
f 209/8/5 207/8/5 208/8/5
f 210/2/5 208/2/5 181/2/5
f 210/7/5 209/7/5 208/7/5
f 211/7/5 209/7/5 210/7/5
f 212/2/5 210/2/5 181/2/5
f 212/22/5 211/22/5 210/22/5
f 213/22/5 211/22/5 212/22/5
f 214/2/5 212/2/5 181/2/5
f 215/21/5 213/21/5 212/21/5
f 215/2/5 212/2/5 214/2/5
f 216/21/5 213/21/5 215/21/5
f 217/2/6 218/2/6 219/2/6
f 219/2/6 218/2/6 220/2/6
