# MagicaVoxel @ Ephtracy

# group
o 

# material
mtllib foundation.mtl
usemtl palette

# normals
vn -1 0 0
vn 1 0 0
vn 0 0 1
vn 0 0 -1
vn 0 -1 0
vn 0 1 0

# texcoords
vt 0.396484 0.5
vt 0.533203 0.5
vt 0.537109 0.5
vt 0.982422 0.5
vt 0.986328 0.5
vt 0.990234 0.5

# verts
v -1.6 0 1.6
v -1.6 0 1.1
v -1.6 0 1
v -1.6 0 -1.6
v -1.6 0.1 1.1
v -1.6 0.1 1
v -1.6 0.2 0.6
v -1.6 0.2 0.5
v -1.6 0.2 0.3
v -1.6 0.2 -0.1
v -1.6 0.2 -0.6
v -1.6 0.2 -0.8
v -1.6 0.3 1.4
v -1.6 0.3 1
v -1.6 0.3 0.3
v -1.6 0.3 -0.1
v -1.6 0.3 -0.6
v -1.6 0.3 -0.8
v -1.6 0.4 0.6
v -1.6 0.4 0.5
v -1.6 0.4 -1
v -1.6 0.4 -1.2
v -1.6 0.5 1.4
v -1.6 0.5 1
v -1.6 0.5 0.1
v -1.6 0.5 0
v -1.6 0.5 -0.9
v -1.6 0.5 -1
v -1.6 0.5 -1.2
v -1.6 0.5 -1.4
v -1.6 0.6 1.2
v -1.6 0.6 0.8
v -1.6 0.6 0.1
v -1.6 0.6 0
v -1.6 0.7 1.2
v -1.6 0.7 0.8
v -1.6 0.7 -0.9
v -1.6 0.7 -1.4
v -1.6 0.8 1.6
v -1.6 0.8 -1.6
v 1.6 0 1.6
v 1.6 0 -0.9
v 1.6 0 -1.2
v 1.6 0 -1.6
v 1.6 0.1 1.1
v 1.6 0.1 0.8
v 1.6 0.2 1.1
v 1.6 0.2 0.8
v 1.6 0.2 0.3
v 1.6 0.2 -0.1
v 1.6 0.3 -0.9
v 1.6 0.3 -1.2
v 1.6 0.4 0.9
v 1.6 0.4 0.3
v 1.6 0.4 -0.1
v 1.6 0.4 -0.4
v 1.6 0.4 -0.8
v 1.6 0.6 0.9
v 1.6 0.6 0.3
v 1.6 0.6 -0.4
v 1.6 0.6 -0.8
v 1.6 0.6 -0.9
v 1.6 0.6 -1.6
v 1.6 0.7 1.6
v 1.6 0.7 1.5
v 1.6 0.8 1.6
v 1.6 0.8 1.5
v 1.6 0.8 -0.9
v 1.6 0.8 -1.6
v -1.6 0 1.6
v -1.6 0.8 1.6
v -1.4 0.2 1.6
v -1.4 0.3 1.6
v -1.3 0.6 1.6
v -1.3 0.8 1.6
v -1.2 0.2 1.6
v -1.2 0.3 1.6
v -1.1 0 1.6
v -1.1 0.2 1.6
v -1.1 0.6 1.6
v -1.1 0.8 1.6
v -0.7 0.3 1.6
v -0.7 0.5 1.6
v -0.7 0.7 1.6
v -0.7 0.8 1.6
v -0.4 0.3 1.6
v -0.4 0.5 1.6
v -0.3 0.7 1.6
v -0.3 0.8 1.6
v 0 0.5 1.6
v 0 0.7 1.6
v 0.2 0.5 1.6
v 0.2 0.7 1.6
v 0.4 0 1.6
v 0.4 0.2 1.6
v 0.5 0.6 1.6
v 0.5 0.8 1.6
v 0.8 0.6 1.6
v 0.8 0.8 1.6
v 1 0 1.6
v 1 0.2 1.6
v 1.1 0.3 1.6
v 1.1 0.4 1.6
v 1.1 0.5 1.6
v 1.1 0.6 1.6
v 1.2 0.3 1.6
v 1.2 0.4 1.6
v 1.2 0.5 1.6
v 1.2 0.6 1.6
v 1.3 0 1.6
v 1.3 0.2 1.6
v 1.3 0.7 1.6
v 1.3 0.8 1.6
v 1.6 0 1.6
v 1.6 0.7 1.6
v 1.6 0.8 1.6
v -1.6 0 -1.6
v -1.6 0.8 -1.6
v -1.5 0.3 -1.6
v -1.5 0.4 -1.6
v -1.1 0.6 -1.6
v -1.1 0.7 -1.6
v -0.7 0.3 -1.6
v -0.7 0.4 -1.6
v -0.6 0.6 -1.6
v -0.6 0.7 -1.6
v 0 0.3 -1.6
v 0 0.5 -1.6
v 0.5 0.3 -1.6
v 0.5 0.5 -1.6
v 1.1 0.3 -1.6
v 1.1 0.4 -1.6
v 1.1 0.6 -1.6
v 1.1 0.8 -1.6
v 1.2 0.3 -1.6
v 1.2 0.4 -1.6
v 1.6 0 -1.6
v 1.6 0.6 -1.6
v 1.6 0.8 -1.6
v -1.6 0 1.6
v -1.1 0 1.6
v 0.4 0 1.6
v 1 0 1.6
v 1.3 0 1.6
v 1.6 0 1.6
v -1.1 0 1.5
v 0.4 0 1.5
v 1 0 1.5
v 1.3 0 1.5
v -1.6 0 1.1
v -1.5 0 1.1
v -1.6 0 1
v -1.5 0 1
v 1.5 0 -0.9
v 1.6 0 -0.9
v 1.5 0 -1.2
v 1.6 0 -1.2
v -1.6 0 -1.6
v 1.6 0 -1.6
v -1.6 0.8 1.6
v -1.3 0.8 1.6
v -1.1 0.8 1.6
v -0.7 0.8 1.6
v -0.3 0.8 1.6
v 0.5 0.8 1.6
v 0.8 0.8 1.6
v 1.3 0.8 1.6
v 1.6 0.8 1.6
v -1.3 0.8 1.5
v -1.1 0.8 1.5
v -0.7 0.8 1.5
v -0.3 0.8 1.5
v 0.5 0.8 1.5
v 0.8 0.8 1.5
v 1.3 0.8 1.5
v 1.6 0.8 1.5
v 1.1 0.8 -0.9
v 1.6 0.8 -0.9
v -1.6 0.8 -1.6
v 1.1 0.8 -1.6
v 1.6 0.8 -1.6

# faces
f 5/3/1 2/3/1 1/3/1
f 5/4/1 3/4/1 2/4/1
f 6/3/1 4/3/1 3/3/1
f 6/4/1 3/4/1 5/4/1
f 7/3/1 6/3/1 5/3/1
f 7/3/1 4/3/1 6/3/1
f 8/3/1 4/3/1 7/3/1
f 9/3/1 4/3/1 8/3/1
f 10/3/1 4/3/1 9/3/1
f 11/3/1 4/3/1 10/3/1
f 12/3/1 4/3/1 11/3/1
f 13/3/1 5/3/1 1/3/1
f 13/3/1 7/3/1 5/3/1
f 14/3/1 7/3/1 13/3/1
f 15/3/1 9/3/1 8/3/1
f 15/5/1 10/5/1 9/5/1
f 16/3/1 11/3/1 10/3/1
f 16/5/1 10/5/1 15/5/1
f 17/4/1 12/4/1 11/4/1
f 17/3/1 11/3/1 16/3/1
f 18/3/1 4/3/1 12/3/1
f 18/4/1 12/4/1 17/4/1
f 19/4/1 8/4/1 7/4/1
f 19/3/1 7/3/1 14/3/1
f 20/3/1 17/3/1 16/3/1
f 20/4/1 8/4/1 19/4/1
f 20/3/1 16/3/1 15/3/1
f 20/3/1 18/3/1 17/3/1
f 20/3/1 15/3/1 8/3/1
f 21/3/1 4/3/1 18/3/1
f 21/3/1 18/3/1 20/3/1
f 22/3/1 4/3/1 21/3/1
f 23/3/1 13/3/1 1/3/1
f 23/5/1 14/5/1 13/5/1
f 24/3/1 19/3/1 14/3/1
f 24/5/1 14/5/1 23/5/1
f 24/3/1 20/3/1 19/3/1
f 24/3/1 21/3/1 20/3/1
f 25/3/1 21/3/1 24/3/1
f 26/3/1 21/3/1 25/3/1
f 27/3/1 21/3/1 26/3/1
f 28/2/1 22/2/1 21/2/1
f 28/3/1 21/3/1 27/3/1
f 29/3/1 4/3/1 22/3/1
f 29/2/1 22/2/1 28/2/1
f 30/3/1 4/3/1 29/3/1
f 31/3/1 24/3/1 23/3/1
f 31/3/1 25/3/1 24/3/1
f 32/3/1 25/3/1 31/3/1
f 33/4/1 26/4/1 25/4/1
f 33/3/1 25/3/1 32/3/1
f 34/3/1 27/3/1 26/3/1
f 34/4/1 26/4/1 33/4/1
f 35/1/1 32/1/1 31/1/1
f 35/3/1 31/3/1 23/3/1
f 36/3/1 33/3/1 32/3/1
f 36/1/1 32/1/1 35/1/1
f 36/3/1 34/3/1 33/3/1
f 37/4/1 28/4/1 27/4/1
f 37/3/1 34/3/1 36/3/1
f 37/4/1 30/4/1 29/4/1
f 37/4/1 29/4/1 28/4/1
f 37/3/1 27/3/1 34/3/1
f 38/3/1 4/3/1 30/3/1
f 38/4/1 30/4/1 37/4/1
f 39/3/1 23/3/1 1/3/1
f 39/3/1 36/3/1 35/3/1
f 39/3/1 38/3/1 37/3/1
f 39/3/1 37/3/1 36/3/1
f 39/3/1 35/3/1 23/3/1
f 40/3/1 4/3/1 38/3/1
f 40/3/1 38/3/1 39/3/1
f 41/3/2 42/3/2 45/3/2
f 45/3/2 42/3/2 46/3/2
f 41/3/2 45/3/2 47/3/2
f 45/1/2 46/1/2 47/1/2
f 46/3/2 42/3/2 48/3/2
f 47/1/2 46/1/2 48/1/2
f 48/3/2 42/3/2 49/3/2
f 49/3/2 42/3/2 50/3/2
f 42/6/2 43/6/2 51/6/2
f 50/3/2 42/3/2 51/3/2
f 43/3/2 44/3/2 52/3/2
f 51/6/2 43/6/2 52/6/2
f 47/3/2 48/3/2 53/3/2
f 48/3/2 49/3/2 53/3/2
f 49/6/2 50/6/2 54/6/2
f 53/3/2 49/3/2 54/3/2
f 50/3/2 51/3/2 55/3/2
f 54/6/2 50/6/2 55/6/2
f 51/3/2 52/3/2 55/3/2
f 55/3/2 52/3/2 56/3/2
f 56/3/2 52/3/2 57/3/2
f 53/5/2 54/5/2 58/5/2
f 47/3/2 53/3/2 58/3/2
f 54/3/2 55/3/2 59/3/2
f 58/5/2 54/5/2 59/5/2
f 55/3/2 56/3/2 59/3/2
f 56/1/2 57/1/2 60/1/2
f 59/3/2 56/3/2 60/3/2
f 57/3/2 52/3/2 61/3/2
f 60/1/2 57/1/2 61/1/2
f 61/3/2 52/3/2 62/3/2
f 52/3/2 44/3/2 63/3/2
f 62/3/2 52/3/2 63/3/2
f 59/3/2 60/3/2 64/3/2
f 58/3/2 59/3/2 64/3/2
f 41/3/2 47/3/2 64/3/2
f 60/3/2 61/3/2 64/3/2
f 47/3/2 58/3/2 64/3/2
f 61/3/2 62/3/2 64/3/2
f 64/3/2 62/3/2 65/3/2
f 64/1/2 65/1/2 66/1/2
f 65/3/2 62/3/2 67/3/2
f 66/1/2 65/1/2 67/1/2
f 62/5/2 63/5/2 68/5/2
f 67/3/2 62/3/2 68/3/2
f 68/5/2 63/5/2 69/5/2
f 72/3/3 71/3/3 70/3/3
f 73/3/3 71/3/3 72/3/3
f 74/3/3 71/3/3 73/3/3
f 75/3/3 71/3/3 74/3/3
f 76/3/3 72/3/3 70/3/3
f 76/4/3 73/4/3 72/4/3
f 77/3/3 74/3/3 73/3/3
f 77/4/3 73/4/3 76/4/3
f 78/3/3 76/3/3 70/3/3
f 78/3/3 77/3/3 76/3/3
f 79/3/3 77/3/3 78/3/3
f 80/5/3 75/5/3 74/5/3
f 80/3/3 77/3/3 79/3/3
f 80/3/3 74/3/3 77/3/3
f 81/5/3 75/5/3 80/5/3
f 82/3/3 80/3/3 79/3/3
f 82/3/3 81/3/3 80/3/3
f 83/3/3 81/3/3 82/3/3
f 84/3/3 81/3/3 83/3/3
f 85/3/3 81/3/3 84/3/3
f 86/3/3 82/3/3 79/3/3
f 86/4/3 83/4/3 82/4/3
f 87/3/3 84/3/3 83/3/3
f 87/4/3 83/4/3 86/4/3
f 88/1/3 85/1/3 84/1/3
f 88/3/3 84/3/3 87/3/3
f 88/3/3 87/3/3 86/3/3
f 89/1/3 85/1/3 88/1/3
f 90/3/3 88/3/3 86/3/3
f 90/3/3 89/3/3 88/3/3
f 91/3/3 89/3/3 90/3/3
f 92/3/3 90/3/3 86/3/3
f 92/5/3 91/5/3 90/5/3
f 93/3/3 89/3/3 91/3/3
f 93/5/3 91/5/3 92/5/3
f 94/6/3 79/6/3 78/6/3
f 95/3/3 86/3/3 79/3/3
f 95/6/3 79/6/3 94/6/3
f 95/3/3 92/3/3 86/3/3
f 95/3/3 93/3/3 92/3/3
f 96/3/3 95/3/3 94/3/3
f 96/3/3 93/3/3 95/3/3
f 97/3/3 89/3/3 93/3/3
f 97/3/3 93/3/3 96/3/3
f 98/3/3 96/3/3 94/3/3
f 98/1/3 97/1/3 96/1/3
f 99/1/3 97/1/3 98/1/3
f 100/3/3 98/3/3 94/3/3
f 100/3/3 99/3/3 98/3/3
f 101/3/3 99/3/3 100/3/3
f 102/3/3 99/3/3 101/3/3
f 103/3/3 99/3/3 102/3/3
f 104/3/3 99/3/3 103/3/3
f 105/3/3 99/3/3 104/3/3
f 106/3/3 102/3/3 101/3/3
f 106/5/3 103/5/3 102/5/3
f 107/3/3 104/3/3 103/3/3
f 107/5/3 103/5/3 106/5/3
f 108/1/3 105/1/3 104/1/3
f 108/3/3 104/3/3 107/3/3
f 109/3/3 99/3/3 105/3/3
f 109/1/3 105/1/3 108/1/3
f 110/6/3 101/6/3 100/6/3
f 111/3/3 108/3/3 107/3/3
f 111/6/3 101/6/3 110/6/3
f 111/3/3 107/3/3 106/3/3
f 111/3/3 109/3/3 108/3/3
f 111/3/3 106/3/3 101/3/3
f 112/3/3 99/3/3 109/3/3
f 112/3/3 109/3/3 111/3/3
f 113/3/3 99/3/3 112/3/3
f 114/3/3 111/3/3 110/3/3
f 114/3/3 112/3/3 111/3/3
f 115/1/3 113/1/3 112/1/3
f 115/3/3 112/3/3 114/3/3
f 116/1/3 113/1/3 115/1/3
f 117/3/4 118/3/4 119/3/4
f 119/3/4 118/3/4 120/3/4
f 120/3/4 118/3/4 121/3/4
f 121/3/4 118/3/4 122/3/4
f 117/3/4 119/3/4 123/3/4
f 119/5/4 120/5/4 123/5/4
f 120/3/4 121/3/4 124/3/4
f 123/5/4 120/5/4 124/5/4
f 121/1/4 122/1/4 125/1/4
f 124/3/4 121/3/4 125/3/4
f 123/3/4 124/3/4 125/3/4
f 122/3/4 118/3/4 126/3/4
f 125/1/4 122/1/4 126/1/4
f 123/3/4 125/3/4 127/3/4
f 117/3/4 123/3/4 127/3/4
f 125/3/4 126/3/4 127/3/4
f 127/3/4 126/3/4 128/3/4
f 117/3/4 127/3/4 129/3/4
f 127/5/4 128/5/4 129/5/4
f 128/3/4 126/3/4 130/3/4
f 129/5/4 128/5/4 130/5/4
f 117/3/4 129/3/4 131/3/4
f 129/3/4 130/3/4 131/3/4
f 131/3/4 130/3/4 132/3/4
f 130/3/4 126/3/4 133/3/4
f 132/3/4 130/3/4 133/3/4
f 126/3/4 118/3/4 134/3/4
f 133/3/4 126/3/4 134/3/4
f 131/1/4 132/1/4 135/1/4
f 117/3/4 131/3/4 135/3/4
f 132/3/4 133/3/4 136/3/4
f 135/1/4 132/1/4 136/1/4
f 117/3/4 135/3/4 137/3/4
f 135/3/4 136/3/4 137/3/4
f 136/3/4 133/3/4 138/3/4
f 137/3/4 136/3/4 138/3/4
f 133/5/4 134/5/4 138/5/4
f 138/5/4 134/5/4 139/5/4
f 146/3/5 141/3/5 140/3/5
f 146/6/5 142/6/5 141/6/5
f 147/3/5 143/3/5 142/3/5
f 147/6/5 142/6/5 146/6/5
f 148/6/5 144/6/5 143/6/5
f 148/3/5 143/3/5 147/3/5
f 149/3/5 145/3/5 144/3/5
f 149/6/5 144/6/5 148/6/5
f 150/3/5 148/3/5 147/3/5
f 150/3/5 147/3/5 146/3/5
f 150/3/5 149/3/5 148/3/5
f 150/3/5 146/3/5 140/3/5
f 151/3/5 149/3/5 150/3/5
f 152/4/5 151/4/5 150/4/5
f 153/3/5 149/3/5 151/3/5
f 153/4/5 151/4/5 152/4/5
f 154/3/5 145/3/5 149/3/5
f 154/3/5 149/3/5 153/3/5
f 154/3/5 153/3/5 152/3/5
f 155/3/5 145/3/5 154/3/5
f 156/3/5 154/3/5 152/3/5
f 156/6/5 155/6/5 154/6/5
f 157/6/5 155/6/5 156/6/5
f 158/3/5 156/3/5 152/3/5
f 158/3/5 157/3/5 156/3/5
f 159/3/5 157/3/5 158/3/5
f 160/3/6 161/3/6 169/3/6
f 161/5/6 162/5/6 169/5/6
f 162/3/6 163/3/6 170/3/6
f 169/5/6 162/5/6 170/5/6
f 163/1/6 164/1/6 171/1/6
f 170/3/6 163/3/6 171/3/6
f 164/3/6 165/3/6 172/3/6
f 171/1/6 164/1/6 172/1/6
f 165/1/6 166/1/6 173/1/6
f 172/3/6 165/3/6 173/3/6
f 166/3/6 167/3/6 174/3/6
f 173/1/6 166/1/6 174/1/6
f 167/1/6 168/1/6 175/1/6
f 174/3/6 167/3/6 175/3/6
f 175/1/6 168/1/6 176/1/6
f 173/3/6 174/3/6 177/3/6
f 172/3/6 173/3/6 177/3/6
f 175/3/6 176/3/6 177/3/6
f 174/3/6 175/3/6 177/3/6
f 171/3/6 172/3/6 177/3/6
f 170/3/6 171/3/6 177/3/6
f 169/3/6 170/3/6 177/3/6
f 177/3/6 176/3/6 178/3/6
f 160/3/6 169/3/6 179/3/6
f 169/3/6 177/3/6 179/3/6
f 177/5/6 178/5/6 180/5/6
f 179/3/6 177/3/6 180/3/6
f 180/5/6 178/5/6 181/5/6
