# MagicaVoxel @ Ephtracy

# group
o 

# material
mtllib flower_small_red.mtl
usemtl palette

# normals
vn -1 0 0
vn 1 0 0
vn 0 0 1
vn 0 0 -1
vn 0 -1 0
vn 0 1 0

# texcoords
vt 0.0175781 0.5
vt 0.0214844 0.5
vt 0.0253906 0.5

# verts
v -0.2 0.5 0.1
v -0.2 0.5 -0.1
v -0.2 0.6 0.1
v -0.2 0.6 -0.1
v -0.1 0.4 0.1
v -0.1 0.4 0
v -0.1 0.5 0.2
v -0.1 0.5 0.1
v -0.1 0.5 0
v -0.1 0.5 -0.1
v -0.1 0.5 -0.2
v -0.1 0.6 0.2
v -0.1 0.6 0.1
v -0.1 0.6 -0.1
v -0.1 0.6 -0.2
v 0 0 0
v 0 0 -0.1
v 0 0.2 0.1
v 0 0.2 0
v 0 0.2 -0.1
v 0 0.4 0.1
v 0 0.4 0
v 0.1 0 0
v 0.1 0 -0.1
v 0.1 0.2 0.1
v 0.1 0.2 0
v 0.1 0.2 -0.1
v 0.1 0.5 0.2
v 0.1 0.5 0.1
v 0.1 0.5 0
v 0.1 0.5 -0.1
v 0.1 0.5 -0.2
v 0.1 0.6 0.2
v 0.1 0.6 0.1
v 0.1 0.6 -0.1
v 0.1 0.6 -0.2
v 0.2 0.5 0.1
v 0.2 0.5 -0.1
v 0.2 0.6 0.1
v 0.2 0.6 -0.1
v -0.1 0.5 0.2
v -0.1 0.6 0.2
v 0.1 0.5 0.2
v 0.1 0.6 0.2
v -0.2 0.5 0.1
v -0.2 0.6 0.1
v -0.1 0.4 0.1
v -0.1 0.5 0.1
v -0.1 0.6 0.1
v 0 0.2 0.1
v 0 0.4 0.1
v 0.1 0.2 0.1
v 0.1 0.5 0.1
v 0.1 0.6 0.1
v 0.2 0.5 0.1
v 0.2 0.6 0.1
v 0 0 0
v 0 0.2 0
v 0.1 0 0
v 0.1 0.2 0
v -0.1 0.4 0
v -0.1 0.5 0
v 0 0.2 0
v 0 0.4 0
v 0.1 0.2 0
v 0.1 0.5 0
v -0.2 0.5 -0.1
v -0.2 0.6 -0.1
v -0.1 0.5 -0.1
v -0.1 0.6 -0.1
v 0 0 -0.1
v 0 0.2 -0.1
v 0.1 0 -0.1
v 0.1 0.2 -0.1
v 0.1 0.5 -0.1
v 0.1 0.6 -0.1
v 0.2 0.5 -0.1
v 0.2 0.6 -0.1
v -0.1 0.5 -0.2
v -0.1 0.6 -0.2
v 0.1 0.5 -0.2
v 0.1 0.6 -0.2
v 0 0 0
v 0.1 0 0
v 0 0 -0.1
v 0.1 0 -0.1
v 0 0.2 0.1
v 0.1 0.2 0.1
v 0 0.2 0
v 0.1 0.2 0
v -0.1 0.4 0.1
v 0 0.4 0.1
v -0.1 0.4 0
v 0 0.4 0
v -0.1 0.5 0.2
v 0.1 0.5 0.2
v -0.2 0.5 0.1
v -0.1 0.5 0.1
v 0.1 0.5 0.1
v 0.2 0.5 0.1
v -0.1 0.5 0
v 0.1 0.5 0
v -0.2 0.5 -0.1
v -0.1 0.5 -0.1
v 0.1 0.5 -0.1
v 0.2 0.5 -0.1
v -0.1 0.5 -0.2
v 0.1 0.5 -0.2
v 0 0.2 0
v 0.1 0.2 0
v 0 0.2 -0.1
v 0.1 0.2 -0.1
v -0.1 0.6 0.2
v 0.1 0.6 0.2
v -0.2 0.6 0.1
v -0.1 0.6 0.1
v 0.1 0.6 0.1
v 0.2 0.6 0.1
v -0.2 0.6 -0.1
v -0.1 0.6 -0.1
v 0.1 0.6 -0.1
v 0.2 0.6 -0.1
v -0.1 0.6 -0.2
v 0.1 0.6 -0.2

# faces
f 3/3/1 2/3/1 1/3/1
f 4/3/1 2/3/1 3/3/1
f 8/2/1 6/2/1 5/2/1
f 9/2/1 6/2/1 8/2/1
f 12/3/1 8/3/1 7/3/1
f 13/3/1 8/3/1 12/3/1
f 14/3/1 11/3/1 10/3/1
f 15/3/1 11/3/1 14/3/1
f 19/2/1 17/2/1 16/2/1
f 20/2/1 17/2/1 19/2/1
f 21/2/1 19/2/1 18/2/1
f 22/2/1 19/2/1 21/2/1
f 23/2/2 24/2/2 26/2/2
f 26/2/2 24/2/2 27/2/2
f 25/2/2 26/2/2 29/2/2
f 29/2/2 26/2/2 30/2/2
f 28/3/2 29/3/2 33/3/2
f 33/3/2 29/3/2 34/3/2
f 31/3/2 32/3/2 35/3/2
f 35/3/2 32/3/2 36/3/2
f 37/3/2 38/3/2 39/3/2
f 39/3/2 38/3/2 40/3/2
f 43/3/3 42/3/3 41/3/3
f 44/3/3 42/3/3 43/3/3
f 48/3/3 46/3/3 45/3/3
f 49/3/3 46/3/3 48/3/3
f 51/2/3 48/2/3 47/2/3
f 52/2/3 51/2/3 50/2/3
f 53/2/3 48/2/3 51/2/3
f 53/2/3 51/2/3 52/2/3
f 55/3/3 54/3/3 53/3/3
f 56/3/3 54/3/3 55/3/3
f 59/2/3 58/2/3 57/2/3
f 60/2/3 58/2/3 59/2/3
f 61/2/4 62/2/4 64/2/4
f 63/2/4 64/2/4 65/2/4
f 64/2/4 62/2/4 66/2/4
f 65/2/4 64/2/4 66/2/4
f 67/3/4 68/3/4 69/3/4
f 69/3/4 68/3/4 70/3/4
f 71/2/4 72/2/4 73/2/4
f 73/2/4 72/2/4 74/2/4
f 75/3/4 76/3/4 77/3/4
f 77/3/4 76/3/4 78/3/4
f 79/3/4 80/3/4 81/3/4
f 81/3/4 80/3/4 82/3/4
f 85/2/5 84/2/5 83/2/5
f 86/2/5 84/2/5 85/2/5
f 89/2/5 88/2/5 87/2/5
f 90/2/5 88/2/5 89/2/5
f 93/2/5 92/2/5 91/2/5
f 94/2/5 92/2/5 93/2/5
f 98/3/5 96/3/5 95/3/5
f 99/3/5 96/3/5 98/3/5
f 101/3/5 98/3/5 97/3/5
f 102/3/5 100/3/5 99/3/5
f 103/3/5 101/3/5 97/3/5
f 104/1/5 102/1/5 101/1/5
f 104/3/5 101/3/5 103/3/5
f 105/3/5 100/3/5 102/3/5
f 105/1/5 102/1/5 104/1/5
f 106/3/5 100/3/5 105/3/5
f 107/3/5 105/3/5 104/3/5
f 108/3/5 105/3/5 107/3/5
f 109/2/6 110/2/6 111/2/6
f 111/2/6 110/2/6 112/2/6
f 113/3/6 114/3/6 116/3/6
f 116/3/6 114/3/6 117/3/6
f 115/3/6 116/3/6 119/3/6
f 116/1/6 117/1/6 120/1/6
f 119/3/6 116/3/6 120/3/6
f 117/3/6 118/3/6 121/3/6
f 120/1/6 117/1/6 121/1/6
f 121/3/6 118/3/6 122/3/6
f 120/3/6 121/3/6 123/3/6
f 123/3/6 121/3/6 124/3/6
