# MagicaVoxel @ Ephtracy

# group
o 

# material
mtllib rat_2.mtl
usemtl palette

# normals
vn -1 0 0
vn 1 0 0
vn 0 0 1
vn 0 0 -1
vn 0 -1 0
vn 0 1 0

# texcoords
vt 0.0136719 0.5
vt 0.0175781 0.5
vt 0.0214844 0.5
vt 0.994141 0.5

# verts
v -0.7 0 -0.1
v -0.7 0 -0.2
v -0.7 0.1 -0.1
v -0.7 0.1 -0.2
v -0.3 0 0.1
v -0.3 0 -0.1
v -0.3 0 -0.2
v -0.3 0 -0.3
v -0.3 0.1 -0.1
v -0.3 0.1 -0.2
v -0.3 0.4 0.1
v -0.3 0.4 -0.3
v -0.2 0 0.2
v -0.2 0 0.1
v -0.2 0 -0.3
v -0.2 0 -0.4
v -0.2 0.1 0.2
v -0.2 0.1 0.1
v -0.2 0.1 -0.3
v -0.2 0.1 -0.4
v 0.1 0 0.2
v 0.1 0 0.1
v 0.1 0 -0.3
v 0.1 0 -0.4
v 0.1 0.1 0.2
v 0.1 0.1 0.1
v 0.1 0.1 -0.3
v 0.1 0.1 -0.4
v 0 0 0.2
v 0 0 0.1
v 0 0 -0.3
v 0 0 -0.4
v 0 0.1 0.2
v 0 0.1 0.1
v 0 0.1 -0.3
v 0 0.1 -0.4
v 0.3 0 0.2
v 0.3 0 0.1
v 0.3 0 -0.3
v 0.3 0 -0.4
v 0.3 0.1 0.2
v 0.3 0.1 0.1
v 0.3 0.1 -0.3
v 0.3 0.1 -0.4
v 0.4 0 0.1
v 0.4 0 -0.3
v 0.4 0.1 0
v 0.4 0.1 -0.2
v 0.4 0.2 0.1
v 0.4 0.2 0
v 0.4 0.2 -0.2
v 0.4 0.2 -0.3
v 0.4 0.3 0.1
v 0.4 0.3 0
v 0.4 0.3 -0.2
v 0.4 0.3 -0.3
v 0.4 0.4 0.1
v 0.4 0.4 -0.3
v 0.5 0.1 0
v 0.5 0.1 -0.2
v 0.5 0.2 0
v 0.5 0.2 -0.2
v -0.2 0 0.2
v -0.2 0.1 0.2
v 0 0 0.2
v 0 0.1 0.2
v 0.1 0 0.2
v 0.1 0.1 0.2
v 0.3 0 0.2
v 0.3 0.1 0.2
v -0.3 0 0.1
v -0.3 0.4 0.1
v -0.2 0 0.1
v -0.2 0.1 0.1
v 0 0 0.1
v 0 0.1 0.1
v 0.1 0 0.1
v 0.1 0.1 0.1
v 0.3 0 0.1
v 0.3 0.1 0.1
v 0.3 0.2 0.1
v 0.3 0.3 0.1
v 0.4 0 0.1
v 0.4 0.2 0.1
v 0.4 0.3 0.1
v 0.4 0.4 0.1
v 0.4 0.1 0
v 0.4 0.2 0
v 0.5 0.1 0
v 0.5 0.2 0
v -0.7 0 -0.1
v -0.7 0.1 -0.1
v -0.3 0 -0.1
v -0.3 0.1 -0.1
v -0.7 0 -0.2
v -0.7 0.1 -0.2
v -0.3 0 -0.2
v -0.3 0.1 -0.2
v 0.4 0.1 -0.2
v 0.4 0.2 -0.2
v 0.5 0.1 -0.2
v 0.5 0.2 -0.2
v -0.3 0 -0.3
v -0.3 0.4 -0.3
v -0.2 0 -0.3
v -0.2 0.1 -0.3
v 0 0 -0.3
v 0 0.1 -0.3
v 0.1 0 -0.3
v 0.1 0.1 -0.3
v 0.3 0 -0.3
v 0.3 0.1 -0.3
v 0.3 0.2 -0.3
v 0.3 0.3 -0.3
v 0.4 0 -0.3
v 0.4 0.2 -0.3
v 0.4 0.3 -0.3
v 0.4 0.4 -0.3
v -0.2 0 -0.4
v -0.2 0.1 -0.4
v 0 0 -0.4
v 0 0.1 -0.4
v 0.1 0 -0.4
v 0.1 0.1 -0.4
v 0.3 0 -0.4
v 0.3 0.1 -0.4
v -0.2 0 0.2
v 0 0 0.2
v 0.1 0 0.2
v 0.3 0 0.2
v -0.3 0 0.1
v -0.2 0 0.1
v 0 0 0.1
v 0.1 0 0.1
v 0.3 0 0.1
v 0.4 0 0.1
v -0.2 0 0
v 0 0 0
v 0.1 0 0
v 0.3 0 0
v -0.7 0 -0.1
v -0.3 0 -0.1
v -0.2 0 -0.1
v -0.7 0 -0.2
v -0.3 0 -0.2
v -0.2 0 -0.2
v 0 0 -0.2
v 0.1 0 -0.2
v 0.3 0 -0.2
v -0.3 0 -0.3
v -0.2 0 -0.3
v 0 0 -0.3
v 0.1 0 -0.3
v 0.3 0 -0.3
v 0.4 0 -0.3
v -0.2 0 -0.4
v 0 0 -0.4
v 0.1 0 -0.4
v 0.3 0 -0.4
v 0.4 0.1 0
v 0.5 0.1 0
v 0.4 0.1 -0.2
v 0.5 0.1 -0.2
v -0.2 0.1 0.2
v 0 0.1 0.2
v 0.1 0.1 0.2
v 0.3 0.1 0.2
v -0.2 0.1 0.1
v 0 0.1 0.1
v 0.1 0.1 0.1
v 0.3 0.1 0.1
v -0.7 0.1 -0.1
v -0.3 0.1 -0.1
v -0.7 0.1 -0.2
v -0.3 0.1 -0.2
v -0.2 0.1 -0.3
v 0 0.1 -0.3
v 0.1 0.1 -0.3
v 0.3 0.1 -0.3
v -0.2 0.1 -0.4
v 0 0.1 -0.4
v 0.1 0.1 -0.4
v 0.3 0.1 -0.4
v 0.4 0.2 0
v 0.5 0.2 0
v 0.4 0.2 -0.2
v 0.5 0.2 -0.2
v -0.3 0.4 0.1
v 0.4 0.4 0.1
v -0.3 0.4 -0.3
v 0.4 0.4 -0.3

# faces
f 3/1/1 2/1/1 1/1/1
f 4/1/1 2/1/1 3/1/1
f 9/3/1 6/3/1 5/3/1
f 10/3/1 8/3/1 7/3/1
f 11/3/1 9/3/1 5/3/1
f 11/3/1 10/3/1 9/3/1
f 12/3/1 8/3/1 10/3/1
f 12/3/1 10/3/1 11/3/1
f 17/2/1 14/2/1 13/2/1
f 18/2/1 14/2/1 17/2/1
f 19/2/1 16/2/1 15/2/1
f 20/2/1 16/2/1 19/2/1
f 25/2/1 22/2/1 21/2/1
f 26/2/1 22/2/1 25/2/1
f 27/2/1 24/2/1 23/2/1
f 28/2/1 24/2/1 27/2/1
f 29/2/2 30/2/2 33/2/2
f 33/2/2 30/2/2 34/2/2
f 31/2/2 32/2/2 35/2/2
f 35/2/2 32/2/2 36/2/2
f 37/2/2 38/2/2 41/2/2
f 41/2/2 38/2/2 42/2/2
f 39/2/2 40/2/2 43/2/2
f 43/2/2 40/2/2 44/2/2
f 45/3/2 46/3/2 47/3/2
f 47/3/2 46/3/2 48/3/2
f 45/3/2 47/3/2 49/3/2
f 49/3/2 47/3/2 50/3/2
f 48/3/2 46/3/2 51/3/2
f 51/3/2 46/3/2 52/3/2
f 49/4/2 50/4/2 53/4/2
f 50/3/2 51/3/2 54/3/2
f 53/4/2 50/4/2 54/4/2
f 51/4/2 52/4/2 55/4/2
f 54/3/2 51/3/2 55/3/2
f 55/4/2 52/4/2 56/4/2
f 53/3/2 54/3/2 57/3/2
f 54/3/2 55/3/2 57/3/2
f 55/3/2 56/3/2 57/3/2
f 57/3/2 56/3/2 58/3/2
f 59/2/2 60/2/2 61/2/2
f 61/2/2 60/2/2 62/2/2
f 65/2/3 64/2/3 63/2/3
f 66/2/3 64/2/3 65/2/3
f 69/2/3 68/2/3 67/2/3
f 70/2/3 68/2/3 69/2/3
f 73/3/3 72/3/3 71/3/3
f 74/3/3 72/3/3 73/3/3
f 76/3/3 72/3/3 74/3/3
f 77/3/3 76/3/3 75/3/3
f 78/3/3 72/3/3 76/3/3
f 78/3/3 76/3/3 77/3/3
f 80/3/3 72/3/3 78/3/3
f 81/3/3 72/3/3 80/3/3
f 82/3/3 72/3/3 81/3/3
f 83/3/3 80/3/3 79/3/3
f 83/3/3 81/3/3 80/3/3
f 84/4/3 82/4/3 81/4/3
f 84/3/3 81/3/3 83/3/3
f 85/3/3 72/3/3 82/3/3
f 85/4/3 82/4/3 84/4/3
f 86/3/3 72/3/3 85/3/3
f 89/2/3 88/2/3 87/2/3
f 90/2/3 88/2/3 89/2/3
f 93/1/3 92/1/3 91/1/3
f 94/1/3 92/1/3 93/1/3
f 95/1/4 96/1/4 97/1/4
f 97/1/4 96/1/4 98/1/4
f 99/2/4 100/2/4 101/2/4
f 101/2/4 100/2/4 102/2/4
f 103/3/4 104/3/4 105/3/4
f 105/3/4 104/3/4 106/3/4
f 106/3/4 104/3/4 108/3/4
f 107/3/4 108/3/4 109/3/4
f 108/3/4 104/3/4 110/3/4
f 109/3/4 108/3/4 110/3/4
f 110/3/4 104/3/4 112/3/4
f 112/3/4 104/3/4 113/3/4
f 113/3/4 104/3/4 114/3/4
f 111/3/4 112/3/4 115/3/4
f 112/3/4 113/3/4 115/3/4
f 113/4/4 114/4/4 116/4/4
f 115/3/4 113/3/4 116/3/4
f 114/3/4 104/3/4 117/3/4
f 116/4/4 114/4/4 117/4/4
f 117/3/4 104/3/4 118/3/4
f 119/2/4 120/2/4 121/2/4
f 121/2/4 120/2/4 122/2/4
f 123/2/4 124/2/4 125/2/4
f 125/2/4 124/2/4 126/2/4
f 132/2/5 128/2/5 127/2/5
f 133/2/5 128/2/5 132/2/5
f 134/2/5 130/2/5 129/2/5
f 135/2/5 130/2/5 134/2/5
f 137/2/5 133/2/5 132/2/5
f 137/3/5 132/3/5 131/3/5
f 138/3/5 134/3/5 133/3/5
f 138/2/5 133/2/5 137/2/5
f 139/2/5 135/2/5 134/2/5
f 139/3/5 134/3/5 138/3/5
f 140/3/5 136/3/5 135/3/5
f 140/2/5 135/2/5 139/2/5
f 142/3/5 139/3/5 138/3/5
f 142/3/5 138/3/5 137/3/5
f 142/3/5 140/3/5 139/3/5
f 142/3/5 137/3/5 131/3/5
f 143/3/5 140/3/5 142/3/5
f 144/1/5 142/1/5 141/1/5
f 144/1/5 143/1/5 142/1/5
f 145/1/5 143/1/5 144/1/5
f 146/3/5 140/3/5 143/3/5
f 146/1/5 143/1/5 145/1/5
f 147/3/5 140/3/5 146/3/5
f 148/3/5 140/3/5 147/3/5
f 149/3/5 136/3/5 140/3/5
f 149/3/5 140/3/5 148/3/5
f 150/3/5 146/3/5 145/3/5
f 151/2/5 147/2/5 146/2/5
f 151/3/5 146/3/5 150/3/5
f 152/3/5 148/3/5 147/3/5
f 152/2/5 147/2/5 151/2/5
f 153/2/5 149/2/5 148/2/5
f 153/3/5 148/3/5 152/3/5
f 154/3/5 136/3/5 149/3/5
f 154/2/5 149/2/5 153/2/5
f 155/3/5 136/3/5 154/3/5
f 156/2/5 152/2/5 151/2/5
f 157/2/5 152/2/5 156/2/5
f 158/2/5 154/2/5 153/2/5
f 159/2/5 154/2/5 158/2/5
f 162/2/5 161/2/5 160/2/5
f 163/2/5 161/2/5 162/2/5
f 164/2/6 165/2/6 168/2/6
f 168/2/6 165/2/6 169/2/6
f 166/2/6 167/2/6 170/2/6
f 170/2/6 167/2/6 171/2/6
f 172/1/6 173/1/6 174/1/6
f 174/1/6 173/1/6 175/1/6
f 176/2/6 177/2/6 180/2/6
f 180/2/6 177/2/6 181/2/6
f 178/2/6 179/2/6 182/2/6
f 182/2/6 179/2/6 183/2/6
f 184/2/6 185/2/6 186/2/6
f 186/2/6 185/2/6 187/2/6
f 188/3/6 189/3/6 190/3/6
f 190/3/6 189/3/6 191/3/6
