# MagicaVoxel @ Ephtracy

# group
o 

# material
mtllib gun.mtl
usemtl palette

# normals
vn -1 0 0
vn 1 0 0
vn 0 0 1
vn 0 0 -1
vn 0 -1 0
vn 0 1 0

# texcoords
vt 0.974609 0.5
vt 0.978516 0.5
vt 0.982422 0.5
vt 0.986328 0.5
vt 0.990234 0.5
vt 0.994141 0.5

# verts
v -0.2 0.4 0.4
v -0.2 0.4 0.3
v -0.2 0.4 -0.3
v -0.2 0.5 -0.2
v -0.2 0.5 -0.3
v -0.2 0.6 0.4
v -0.2 0.6 0.3
v -0.2 0.6 -0.2
v -0.1 0 0
v -0.1 0 -0.2
v -0.1 0.3 0.4
v -0.1 0.3 0.3
v -0.1 0.3 0
v -0.1 0.3 -0.2
v -0.1 0.3 -0.3
v -0.1 0.4 0.4
v -0.1 0.4 0.3
v -0.1 0.4 -0.3
v -0.1 0.4 -0.4
v -0.1 0.5 -0.2
v -0.1 0.5 -0.3
v -0.1 0.5 -0.4
v -0.1 0.6 0.4
v -0.1 0.6 0.3
v -0.1 0.6 -0.2
v -0.1 0.6 -0.3
v -0.1 0.7 0.4
v -0.1 0.7 0.3
v -0.1 0.7 -0.1
v -0.1 0.7 -0.2
v -0.1 0.8 -0.1
v -0.1 0.8 -0.2
v 0.1 0.4 0.4
v 0.1 0.4 0.3
v 0.1 0.4 -0.1
v 0.1 0.6 0.4
v 0.1 0.6 0.3
v 0.1 0.6 -0.1
v -0.1 0.4 0.4
v -0.1 0.4 0.3
v -0.1 0.4 -0.1
v -0.1 0.6 0.4
v -0.1 0.6 0.3
v -0.1 0.6 -0.1
v 0.1 0 0
v 0.1 0 -0.2
v 0.1 0.3 0.4
v 0.1 0.3 0.3
v 0.1 0.3 0
v 0.1 0.3 -0.2
v 0.1 0.3 -0.3
v 0.1 0.4 0.4
v 0.1 0.4 0.3
v 0.1 0.4 -0.3
v 0.1 0.4 -0.4
v 0.1 0.5 -0.2
v 0.1 0.5 -0.3
v 0.1 0.5 -0.4
v 0.1 0.6 0.4
v 0.1 0.6 0.3
v 0.1 0.6 -0.2
v 0.1 0.6 -0.3
v 0.1 0.7 0.4
v 0.1 0.7 0.3
v 0.1 0.7 -0.1
v 0.1 0.7 -0.2
v 0.1 0.8 -0.1
v 0.1 0.8 -0.2
v 0.2 0.4 0.4
v 0.2 0.4 0.3
v 0.2 0.4 -0.3
v 0.2 0.5 -0.2
v 0.2 0.5 -0.3
v 0.2 0.6 0.4
v 0.2 0.6 0.3
v 0.2 0.6 -0.2
v -0.2 0.4 0.4
v -0.2 0.6 0.4
v -0.1 0.3 0.4
v -0.1 0.4 0.4
v -0.1 0.6 0.4
v -0.1 0.7 0.4
v 0.1 0.3 0.4
v 0.1 0.4 0.4
v 0.1 0.6 0.4
v 0.1 0.7 0.4
v 0.2 0.4 0.4
v 0.2 0.6 0.4
v -0.1 0 0
v -0.1 0.3 0
v 0.1 0 0
v 0.1 0.3 0
v -0.1 0.4 -0.1
v -0.1 0.6 -0.1
v -0.1 0.7 -0.1
v -0.1 0.8 -0.1
v 0.1 0.4 -0.1
v 0.1 0.6 -0.1
v 0.1 0.7 -0.1
v 0.1 0.8 -0.1
v -0.2 0.5 -0.2
v -0.2 0.6 -0.2
v -0.1 0 -0.2
v -0.1 0.3 -0.2
v -0.1 0.5 -0.2
v -0.1 0.6 -0.2
v -0.1 0.7 -0.2
v -0.1 0.8 -0.2
v 0.1 0 -0.2
v 0.1 0.3 -0.2
v 0.1 0.5 -0.2
v 0.1 0.6 -0.2
v 0.1 0.7 -0.2
v 0.1 0.8 -0.2
v 0.2 0.5 -0.2
v 0.2 0.6 -0.2
v -0.2 0.4 -0.3
v -0.2 0.5 -0.3
v -0.1 0.3 -0.3
v -0.1 0.4 -0.3
v -0.1 0.5 -0.3
v -0.1 0.6 -0.3
v 0.1 0.3 -0.3
v 0.1 0.4 -0.3
v 0.1 0.5 -0.3
v 0.1 0.6 -0.3
v 0.2 0.4 -0.3
v 0.2 0.5 -0.3
v -0.1 0.4 -0.4
v -0.1 0.5 -0.4
v 0.1 0.4 -0.4
v 0.1 0.5 -0.4
v -0.1 0 0
v 0.1 0 0
v -0.1 0 -0.2
v 0.1 0 -0.2
v -0.1 0.3 0.4
v 0.1 0.3 0.4
v -0.1 0.3 0.3
v 0.1 0.3 0.3
v -0.1 0.3 0
v 0.1 0.3 0
v -0.1 0.3 -0.2
v 0.1 0.3 -0.2
v -0.1 0.3 -0.3
v 0.1 0.3 -0.3
v -0.2 0.4 0.4
v -0.1 0.4 0.4
v 0.1 0.4 0.4
v 0.2 0.4 0.4
v -0.2 0.4 0.3
v -0.1 0.4 0.3
v 0.1 0.4 0.3
v 0.2 0.4 0.3
v -0.2 0.4 -0.3
v -0.1 0.4 -0.3
v 0.1 0.4 -0.3
v 0.2 0.4 -0.3
v -0.1 0.4 -0.4
v 0.1 0.4 -0.4
v -0.1 0.6 0.4
v 0.1 0.6 0.4
v -0.1 0.6 0.3
v 0.1 0.6 0.3
v -0.1 0.6 -0.1
v 0.1 0.6 -0.1
v -0.1 0.4 0.4
v 0.1 0.4 0.4
v -0.1 0.4 0.3
v 0.1 0.4 0.3
v -0.1 0.4 -0.1
v 0.1 0.4 -0.1
v -0.2 0.5 -0.2
v -0.1 0.5 -0.2
v 0.1 0.5 -0.2
v 0.2 0.5 -0.2
v -0.2 0.5 -0.3
v -0.1 0.5 -0.3
v 0.1 0.5 -0.3
v 0.2 0.5 -0.3
v -0.1 0.5 -0.4
v 0.1 0.5 -0.4
v -0.2 0.6 0.4
v -0.1 0.6 0.4
v 0.1 0.6 0.4
v 0.2 0.6 0.4
v -0.2 0.6 0.3
v -0.1 0.6 0.3
v 0.1 0.6 0.3
v 0.2 0.6 0.3
v -0.2 0.6 -0.2
v -0.1 0.6 -0.2
v 0.1 0.6 -0.2
v 0.2 0.6 -0.2
v -0.1 0.6 -0.3
v 0.1 0.6 -0.3
v -0.1 0.7 0.4
v 0.1 0.7 0.4
v -0.1 0.7 0.3
v 0.1 0.7 0.3
v -0.1 0.7 -0.1
v 0.1 0.7 -0.1
v -0.1 0.8 -0.1
v 0.1 0.8 -0.1
v -0.1 0.8 -0.2
v 0.1 0.8 -0.2

# faces
f 4/5/1 3/5/1 2/5/1
f 5/5/1 3/5/1 4/5/1
f 6/6/1 2/6/1 1/6/1
f 7/5/1 4/5/1 2/5/1
f 7/6/1 2/6/1 6/6/1
f 8/5/1 4/5/1 7/5/1
f 13/3/1 10/3/1 9/3/1
f 14/3/1 10/3/1 13/3/1
f 16/6/1 12/6/1 11/6/1
f 17/5/1 15/5/1 14/5/1
f 17/6/1 12/6/1 16/6/1
f 17/5/1 13/5/1 12/5/1
f 17/5/1 14/5/1 13/5/1
f 18/5/1 15/5/1 17/5/1
f 21/3/1 19/3/1 18/3/1
f 22/3/1 19/3/1 21/3/1
f 25/3/1 21/3/1 20/3/1
f 26/3/1 21/3/1 25/3/1
f 27/6/1 24/6/1 23/6/1
f 28/5/1 25/5/1 24/5/1
f 28/6/1 24/6/1 27/6/1
f 29/5/1 25/5/1 28/5/1
f 30/5/1 25/5/1 29/5/1
f 31/4/1 30/4/1 29/4/1
f 32/4/1 30/4/1 31/4/1
f 36/6/1 34/6/1 33/6/1
f 37/5/1 35/5/1 34/5/1
f 37/6/1 34/6/1 36/6/1
f 38/5/1 35/5/1 37/5/1
f 39/6/2 40/6/2 42/6/2
f 40/5/2 41/5/2 43/5/2
f 42/6/2 40/6/2 43/6/2
f 43/5/2 41/5/2 44/5/2
f 45/3/2 46/3/2 49/3/2
f 49/3/2 46/3/2 50/3/2
f 47/6/2 48/6/2 52/6/2
f 50/5/2 51/5/2 53/5/2
f 52/6/2 48/6/2 53/6/2
f 48/5/2 49/5/2 53/5/2
f 49/5/2 50/5/2 53/5/2
f 53/5/2 51/5/2 54/5/2
f 54/3/2 55/3/2 57/3/2
f 57/3/2 55/3/2 58/3/2
f 56/3/2 57/3/2 61/3/2
f 61/3/2 57/3/2 62/3/2
f 59/6/2 60/6/2 63/6/2
f 60/5/2 61/5/2 64/5/2
f 63/6/2 60/6/2 64/6/2
f 64/5/2 61/5/2 65/5/2
f 65/5/2 61/5/2 66/5/2
f 65/4/2 66/4/2 67/4/2
f 67/4/2 66/4/2 68/4/2
f 70/5/2 71/5/2 72/5/2
f 72/5/2 71/5/2 73/5/2
f 69/6/2 70/6/2 74/6/2
f 70/5/2 72/5/2 75/5/2
f 74/6/2 70/6/2 75/6/2
f 75/5/2 72/5/2 76/5/2
f 80/6/3 78/6/3 77/6/3
f 81/6/3 78/6/3 80/6/3
f 83/6/3 80/6/3 79/6/3
f 84/6/3 80/6/3 83/6/3
f 85/6/3 82/6/3 81/6/3
f 86/6/3 82/6/3 85/6/3
f 87/6/3 85/6/3 84/6/3
f 88/6/3 85/6/3 87/6/3
f 91/3/3 90/3/3 89/3/3
f 92/3/3 90/3/3 91/3/3
f 97/1/3 94/1/3 93/1/3
f 98/1/3 94/1/3 97/1/3
f 99/4/3 96/4/3 95/4/3
f 100/4/3 96/4/3 99/4/3
f 101/5/4 102/5/4 105/5/4
f 105/5/4 102/5/4 106/5/4
f 103/3/4 104/3/4 109/3/4
f 109/3/4 104/3/4 110/3/4
f 106/5/4 107/5/4 112/5/4
f 107/4/4 108/4/4 113/4/4
f 112/5/4 107/5/4 113/5/4
f 113/4/4 108/4/4 114/4/4
f 111/5/4 112/5/4 115/5/4
f 115/5/4 112/5/4 116/5/4
f 117/5/4 118/5/4 120/5/4
f 120/5/4 118/5/4 121/5/4
f 119/5/4 120/5/4 123/5/4
f 123/5/4 120/5/4 124/5/4
f 121/3/4 122/3/4 125/3/4
f 125/3/4 122/3/4 126/3/4
f 124/5/4 125/5/4 127/5/4
f 127/5/4 125/5/4 128/5/4
f 129/3/4 130/3/4 131/3/4
f 131/3/4 130/3/4 132/3/4
f 135/3/5 134/3/5 133/3/5
f 136/3/5 134/3/5 135/3/5
f 139/6/5 138/6/5 137/6/5
f 140/6/5 138/6/5 139/6/5
f 141/5/5 140/5/5 139/5/5
f 142/5/5 140/5/5 141/5/5
f 145/5/5 144/5/5 143/5/5
f 146/5/5 144/5/5 145/5/5
f 151/6/5 148/6/5 147/6/5
f 152/6/5 148/6/5 151/6/5
f 153/6/5 150/6/5 149/6/5
f 154/6/5 150/6/5 153/6/5
f 155/5/5 152/5/5 151/5/5
f 156/5/5 152/5/5 155/5/5
f 157/5/5 154/5/5 153/5/5
f 158/5/5 154/5/5 157/5/5
f 159/3/5 157/3/5 156/3/5
f 160/3/5 157/3/5 159/3/5
f 163/6/5 162/6/5 161/6/5
f 164/6/5 162/6/5 163/6/5
f 165/5/5 164/5/5 163/5/5
f 166/5/5 164/5/5 165/5/5
f 167/6/6 168/6/6 169/6/6
f 169/6/6 168/6/6 170/6/6
f 169/5/6 170/5/6 171/5/6
f 171/5/6 170/5/6 172/5/6
f 173/5/6 174/5/6 177/5/6
f 177/5/6 174/5/6 178/5/6
f 175/5/6 176/5/6 179/5/6
f 179/5/6 176/5/6 180/5/6
f 178/3/6 179/3/6 181/3/6
f 181/3/6 179/3/6 182/3/6
f 183/6/6 184/6/6 187/6/6
f 187/6/6 184/6/6 188/6/6
f 185/6/6 186/6/6 189/6/6
f 189/6/6 186/6/6 190/6/6
f 187/5/6 188/5/6 191/5/6
f 191/5/6 188/5/6 192/5/6
f 189/5/6 190/5/6 193/5/6
f 193/5/6 190/5/6 194/5/6
f 192/3/6 193/3/6 195/3/6
f 195/3/6 193/3/6 196/3/6
f 197/6/6 198/6/6 199/6/6
f 199/6/6 198/6/6 200/6/6
f 199/5/6 200/5/6 201/5/6
f 201/5/6 200/5/6 202/5/6
f 203/4/6 204/4/6 205/4/6
f 205/4/6 204/4/6 206/4/6
